<?xml version="1.0" standalone="no"?>
<!DOCTYPE svg PUBLIC "-//W3C//DTD SVG 1.1//EN" "http://www.w3.org/Graphics/SVG/1.1/DTD/svg11.dtd" >
<svg xmlns="http://www.w3.org/2000/svg">
<metadata>IconFonts</metadata>
<defs>
<font id="iconFonts" horiz-adv-x="1024">
<font-face units-per-em="1024" ascent="960" descent="-64" />
<missing-glyph horiz-adv-x="1024" />
<glyph unicode="&#x20;" horiz-adv-x="512" d="" />
<glyph unicode="&#xe900;" glyph-name="direct_back" d="M512 874.667c-247.392 0-448-200.608-448-448s200.608-448 448-448 448 200.608 448 448-200.608 448-448 448zM512 42.667c-211.744 0-384 172.256-384 384s172.256 384 384 384 384-172.256 384-384-172.256-384-384-384zM534.624 596.043l-45.248 45.248-214.624-214.624 214.624-214.624 45.248 45.248-137.376 137.376h370.752v64h-370.752z" />
<glyph unicode="&#xe901;" glyph-name="direct_down" d="M63.936 426.667c0-247.36 200.64-448 448-448s448 200.64 448 448-200.64 448-448 448-448-200.64-448-448zM895.936 426.667c0-211.744-172.256-384-384-384s-384 172.256-384 384 172.256 384 384 384 384-172.256 384-384zM342.56 449.291l-45.248-45.248 214.624-214.624 214.624 214.624-45.248 45.248-137.376-137.376v370.752h-64v-370.752z" />
<glyph unicode="&#xe902;" glyph-name="direct_next" d="M489.376 596.043l137.376-137.376h-370.752v-64h370.752l-137.376-137.376 45.248-45.248 214.624 214.624-214.624 214.624zM512 874.667c-247.392 0-448-200.608-448-448s200.608-448 448-448c247.392 0 448 200.608 448 448s-200.608 448-448 448zM512 42.667c-211.744 0-384 172.256-384 384s172.256 384 384 384c211.744 0 384-172.256 384-384s-172.256-384-384-384z" />
<glyph unicode="&#xe903;" glyph-name="direct_up" d="M960 426.667c0 247.392-200.64 448-448 448s-448-200.608-448-448c0-247.36 200.64-448 448-448s448 200.64 448 448zM128 426.667c0 211.744 172.256 384 384 384s384-172.256 384-384-172.256-384-384-384-384 172.256-384 384zM681.376 404.043l45.248 45.248-214.624 214.624-214.624-214.624 45.248-45.248 137.376 137.376v-370.752h64v370.752z" />
<glyph unicode="&#xe904;" glyph-name="access_key" d="M800 906.667l-396.448-396.416c-26.432 8-54.496 12.416-83.552 12.416-159.072 0-288-128.928-288-288s128.928-288 288-288 288 128.928 288 288c0 29.088-4.416 57.12-12.448 83.584l76.448 76.416v64h64l256 256v192h-192zM928 741.195l-218.496-218.528h-101.504v-101.472l-84.832-84.8 11.136-36.704c6.432-21.184 9.696-43.040 9.696-65.024 0-123.52-100.512-224-224-224s-224 100.48-224 224 100.512 224 224 224c21.952 0 43.84-3.264 64.992-9.664l36.672-11.136 404.832 404.8h101.504v-101.472zM320 170.667c0-35.346-28.654-64-64-64s-64 28.654-64 64c0 35.346 28.654 64 64 64s64-28.654 64-64zM875.327 767.364l-191.992-191.992-22.627 22.627 191.992 191.992 22.627-22.627z" />
<glyph unicode="&#xe905;" glyph-name="activity" d="M672 477.419l137.376-137.376 45.248 45.248-182.624 182.624-320-320-137.376 137.376-45.248-45.248 182.624-182.624zM32 810.667v-768h960v768h-960zM928 106.667h-832v512h832v-512z" />
<glyph unicode="&#xe906;" glyph-name="add_new" d="M296.008 457.527v-61.711h185.142v-185.142h61.711v185.142h185.142v61.711h-185.142v185.142h-61.711v-185.142zM80.013 426.667c0-238.551 193.439-431.987 431.987-431.987s431.987 193.439 431.987 431.987-193.439 431.987-431.987 431.987-431.987-193.439-431.987-431.987zM882.274 426.667c0-204.176-166.098-370.274-370.274-370.274s-370.274 166.098-370.274 370.274 166.098 370.274 370.274 370.274 370.274-166.098 370.274-370.274z" />
<glyph unicode="&#xe907;" glyph-name="admin" d="M512 266.667c176.736 0 320 143.264 320 320s-143.264 320-320 320-320-143.264-320-320 143.264-320 320-320zM512 842.667c141.152 0 256-114.848 256-256s-114.848-256-256-256-256 114.848-256 256 114.848 256 256 256zM768 202.667h-512c-70.688 0-128-57.312-128-128v-128h768v128c0 70.688-57.312 128-128 128zM678.624 660.043l-45.248 45.248-169.376-169.376-73.376 73.376-45.248-45.248 118.624-118.624z" />
<glyph unicode="&#xe908;" glyph-name="api" d="M453.12 435.787c-3.424 0-5.728 0.96-6.88 2.88-1.184 1.92-1.76 5.12-1.76 9.6v85.12c0 8.768-1.92 16.16-5.76 22.24s-8.896 11.040-15.2 14.88c-6.304 3.84-13.408 6.624-21.28 8.32-7.904 1.696-15.904 2.56-24 2.56-9.184 0-18.112-0.864-26.88-2.56-8.736-1.696-16.608-4.672-23.52-8.96-6.944-4.288-12.64-9.92-17.12-16.96s-7.040-15.904-7.68-26.56h36.48c0.864 8.96 4.576 15.584 11.2 19.84s15.040 6.4 25.28 6.4c3.616 0 7.456-0.288 11.52-0.8 4.032-0.544 7.744-1.6 11.040-3.2s6.080-3.904 8.32-6.88c2.24-2.976 3.36-6.816 3.36-11.52 0-5.344-1.344-9.344-4-12s-6.304-4.64-10.88-5.92c-4.608-1.28-9.888-2.176-15.84-2.72-5.984-0.544-12.256-1.44-18.88-2.72-7.68-0.864-15.328-2.080-22.88-3.68-7.584-1.6-14.4-4.224-20.48-7.84-6.080-3.648-11.008-8.64-14.72-15.040-3.744-6.4-5.6-14.72-5.6-24.96 0-8.096 1.536-15.2 4.64-21.28s7.264-11.104 12.48-15.040c5.216-3.968 11.264-6.944 18.080-8.96s13.952-3.040 21.44-3.040c9.824 0 20 1.6 30.56 4.8s19.456 8.32 26.72 15.36c1.504-7.488 4.704-12.704 9.6-15.68s11.072-4.48 18.56-4.48c1.504 0 3.328 0.096 5.44 0.32s4.256 0.544 6.4 0.96c2.144 0.448 4.224 0.896 6.24 1.44s3.68 1.024 4.96 1.44v25.28c-1.92-0.416-3.616-0.64-5.12-0.64s-2.784 0-3.84 0zM408 467.179c0-5.76-1.376-10.624-4.16-14.56s-6.24-7.2-10.4-9.76c-4.16-2.56-8.608-4.384-13.28-5.44-4.672-1.088-9.056-1.6-13.12-1.6-3.2 0-6.752 0.32-10.72 0.96-3.936 0.64-7.552 1.76-10.88 3.36s-6.144 3.776-8.48 6.56c-2.336 2.752-3.52 6.176-3.52 10.24 0 4.672 0.8 8.672 2.4 12s3.776 5.952 6.56 8c2.752 2.016 5.952 3.616 9.6 4.8 3.616 1.184 7.36 2.080 11.2 2.72 8.096 1.504 16.192 2.624 24.32 3.36 8.096 0.736 14.944 2.944 20.48 6.56v-27.2zM629.44 555.627c-6.4 8-14.464 14.304-24.16 18.88s-21.088 6.88-34.080 6.88c-10.656 0-20.608-2.080-29.76-6.24-9.184-4.16-16.32-11.040-21.44-20.64h-0.64v22.4h-34.56v-226.56h36.48v82.56h0.64c2.752-4.48 6.24-8.384 10.4-11.68 4.16-3.328 8.672-6.048 13.6-8.16 4.896-2.112 10.016-3.68 15.36-4.64 5.312-0.96 10.656-1.44 16-1.44 12.16 0 22.72 2.4 31.68 7.2s16.384 11.2 22.24 19.2c5.856 8 10.24 17.216 13.12 27.68s4.32 21.248 4.32 32.32c0 12.16-1.6 23.552-4.8 34.24s-8 20-14.4 28zM609.76 472.747c-1.6-6.944-4.288-13.12-8-18.56-3.744-5.44-8.48-9.888-14.24-13.28s-12.8-5.12-21.12-5.12c-7.456 0-14.016 1.504-19.68 4.48s-10.528 7.040-14.56 12.16c-4.032 5.12-7.104 11.264-9.12 18.4s-3.040 14.88-3.040 23.2c0 17.696 3.904 31.904 11.68 42.56s19.36 16 34.72 16c7.456 0 14.080-1.664 19.84-4.96 5.76-3.328 10.56-7.68 14.4-13.12s6.72-11.68 8.64-18.72c1.92-7.040 2.88-14.272 2.88-21.76 0-7.232-0.8-14.336-2.4-21.28zM680.32 639.979h36.48v-34.56h-36.48v34.56zM680.32 576.907h36.48v-165.44h-36.48v165.44zM96 842.667v-832h832v832h-832zM160 778.667h704v-576h-704v576z" />
<glyph unicode="&#xe909;" glyph-name="applications" d="M806.144 420.523l-45.248 45.248c-30.016-30.016-64.928-53.664-103.744-71.072l-74.24 213.472c34.4 22.976 57.088 62.048 57.088 106.496 0 59.552-40.896 109.184-96 123.456v68.544h-64v-68.544c-55.104-14.272-96-63.904-96-123.456 0-44.448 22.688-83.52 57.088-106.496l-215.296-618.976 60.448-21.024 119.904 344.736c34.624-9.056 70.24-13.696 105.888-13.696s71.264 4.64 105.888 13.696l119.904-344.736 60.448 21.024-120 345.056c47.872 20.768 91.008 49.376 127.872 86.272zM512 746.667c17.664 0 32-14.336 32-32s-14.336-32-32-32c-17.664 0-32 14.336-32 32s14.336 32 32 32zM427.232 373.547l74.496 214.144c3.456-0.288 6.752-1.024 10.272-1.024s6.816 0.736 10.272 1.024l74.496-214.144c-55.552-13.728-113.984-13.728-169.536 0z" />
<glyph unicode="&#xe90a;" glyph-name="archive-storage" d="M416 490.667h192v-64h-192v64zM32 778.667v-160h64v-544h192v32h448v-32h192v544h64v160h-960zM160 170.667v384h704v-384h-704z" />
<glyph unicode="&#xe90b;" glyph-name="arrow_down" d="M890.335 607.756c-12.576 12.416-32.801 12.353-45.248-0.193l-327.839-330.848-332.416 329.439c-12.576 12.447-32.801 12.353-45.281-0.193-12.447-12.576-12.353-32.832 0.193-45.281l353.312-350.112c0.544-0.544 1.247-0.673 1.792-1.183 0.127-0.127 0.16-0.287 0.287-0.416 6.239-6.176 14.4-9.28 22.528-9.28 8.224 0 16.48 3.169 22.72 9.471l350.112 353.312c12.48 12.58 12.385 32.835-0.16 45.284z" />
<glyph unicode="&#xe90c;" glyph-name="arrow_left" d="M644.375 801.167l-350.156-353.375c-0.5-0.5-0.688-1.188-1.156-1.75-0.125-0.125-0.313-0.156-0.438-0.281-12.438-12.594-12.375-32.844 0.188-45.281l353.344-350.125c12.563-12.438 32.813-12.344 45.25 0.188 6.188 6.25 9.281 14.406 9.281 22.531 0 8.219-3.156 16.5-9.469 22.719l-330.813 327.874 329.406 332.438c6.156 6.25 9.281 14.375 9.281 22.563 0 8.25-3.188 16.469-9.469 22.688-12.53 12.467-32.811 12.373-45.249-0.189z" />
<glyph unicode="&#xe90d;" glyph-name="arrow_right" d="M383.656 50.604l350.156 353.375c0.5 0.5 0.688 1.188 1.156 1.75 0.125 0.125 0.313 0.156 0.438 0.281 12.438 12.594 12.375 32.844-0.188 45.281l-353.343 350.126c-12.563 12.438-32.813 12.344-45.25-0.188-6.188-6.25-9.281-14.406-9.281-22.531 0-8.219 3.156-16.5 9.469-22.719l330.813-327.875-329.407-332.437c-6.156-6.25-9.281-14.375-9.281-22.563 0-8.25 3.188-16.469 9.469-22.688 12.531-12.468 32.812-12.374 45.249 0.188z" />
<glyph unicode="&#xe90e;" glyph-name="arrow_up" d="M887.328 321.515l-353.377 350.145c-0.513 0.513-1.216 0.673-1.76 1.153-0.127 0.127-0.16 0.32-0.287 0.447-12.576 12.416-32.832 12.353-45.281-0.193l-350.112-353.344c-12.447-12.576-12.353-32.801 0.193-45.248 6.239-6.176 14.4-9.28 22.528-9.28 8.224 0 16.48 3.169 22.72 9.471l327.841 330.817 332.48-329.408c6.239-6.176 14.369-9.28 22.528-9.28 8.255 0 16.48 3.169 22.72 9.471 12.447 12.545 12.351 32.802-0.193 45.25z" />
<glyph unicode="&#xe90f;" glyph-name="barchart" d="M64 106.667v672h-32v-704h960v32zM128 426.667h224v-256h-224v256zM640 682.667h-224v-512h224v512zM576 234.667h-96v384h96v-384zM704 522.667h224v-32h-224v32zM704 458.667h224v-32h-224v32zM704 394.667h224v-32h-224v32zM704 330.667h224v-32h-224v32zM704 266.667h224v-32h-224v32zM704 202.667h224v-32h-224v32z" />
<glyph unicode="&#xe910;" glyph-name="attachment" d="M256.096-21.333c-60.032 0-116.448 24.096-158.816 67.84-86.752 89.632-86.752 235.456 0 325.12l402.56 415.808c54.432 56.256 126.912 87.232 204.064 87.232s149.632-30.976 204.064-87.232c111.712-115.392 111.744-303.2 0.032-418.624l-327.904-338.688-45.952 44.544 327.904 338.656c87.936 90.848 87.936 238.72-0.032 329.6-42.304 43.68-98.464 67.744-158.112 67.744s-115.808-24.064-158.112-67.744l-402.528-415.808c-62.976-65.088-63.008-171.008 0-236.064 30.176-31.2 70.272-48.384 112.832-48.384s82.624 17.184 112.8 48.352l301.088 311.008c38.048 39.296 38.016 103.232 0 142.496-36.192 37.376-98.88 37.408-135.104 0.032l-226.4-233.856-45.984 44.544 226.368 233.824c30.24 31.264 70.592 48.48 113.504 48.48 42.944 0 83.264-17.216 113.536-48.48 61.792-63.84 61.824-167.68 0-231.52l-301.056-310.976c-42.304-43.808-98.72-67.904-158.752-67.904z" />
<glyph unicode="&#xe911;" glyph-name="blog" d="M480 522.667h-64l32 128h-64l-32-128v-128h128zM672 522.667h-64l32 128h-64l-32-128v-128h128zM96 842.667v-640l192-192h640v832h-832zM864 74.667h-544v160h-160v544h704v-704z" />
<glyph unicode="&#xe912;" glyph-name="booklet-guide" d="M672 714.667l-320 64-320-64v-704l320 64 320-64 320 64v704l-320-64zM640 145.067l-256 51.2v510.752l256-51.232v-510.72zM96 662.187l224 44.768v-510.688l-224-44.8v510.72zM704 145.067v510.72l224 44.8v-510.72l-224-44.8z" />
<glyph unicode="&#xe913;" glyph-name="bookmark" d="M256 906.667h-128v-960h768v960h-640zM832 10.667h-512v832h192v-448l128 128 128-128v448h64v-832z" />
<glyph unicode="&#xe914;" glyph-name="calendar" d="M540.576 366.443c-11.040-9.696-23.136-18.752-36.32-27.136-13.184-8.48-25.824-17.152-37.984-26.080-25.28-17.248-45.216-37.504-59.84-60.768-14.624-23.328-22.112-50.624-22.432-81.792h255.456v54.88h-182.24c2.496 8.224 7.104 16 13.952 23.36 6.688 7.392 14.656 14.432 23.68 21.28 9.152 6.816 19.008 13.6 29.696 20.416 10.72 6.816 21.408 13.984 32.128 21.472 10.656 7.52 21.024 15.648 31.008 24.256 9.888 8.64 18.848 18.016 26.656 28.192 7.872 10.24 14.112 21.408 18.752 33.6 4.608 12.192 6.912 25.888 6.912 40.896 0 12.16-1.984 25.024-5.856 38.464-3.936 13.44-10.656 25.856-20.096 37.408-9.408 11.424-21.824 20.96-37.12 28.48-15.264 7.52-34.4 11.296-57.184 11.296-20.992 0-39.488-3.712-55.328-11.040-15.872-7.328-29.28-17.472-40.384-30.368-11.040-12.928-19.328-28.224-24.8-46.016-5.536-17.728-8.32-37.056-8.32-57.792h60.896c0.416 13.216 1.728 25.6 4 37.12 2.368 11.456 5.92 21.376 10.72 29.824 4.768 8.448 11.232 15.072 19.232 19.904 8 4.768 18.048 7.296 30.176 7.296 13.184 0 23.84-2.272 32.064-6.752 8.192-4.512 14.624-10.080 19.232-16.672 4.608-6.656 7.744-13.792 9.376-21.536 1.568-7.712 2.368-14.976 2.368-21.76-0.352-14.688-4.064-27.712-11.264-39.008-7.008-11.232-16.064-21.76-27.136-31.424zM32 810.667v-768h960v768h-960zM928 106.667h-832v512h832v-512z" />
<glyph unicode="&#xe915;" glyph-name="camera" d="M352 746.667v64h-192v-64h-128v-640h960v640h-640zM928 170.667h-832v512h832v-512zM672 218.667c114.944 0 208 93.056 208 208s-93.056 208-208 208c-114.784 0-208-93.056-208-208s93.216-208 208-208zM672 602.667c97.056 0 176-78.944 176-176s-78.944-176-176-176c-97.056 0-176 78.944-176 176s78.944 176 176 176zM672 314.667c61.888 0 112 50.112 112 112s-50.112 112-112 112c-61.824 0-112-50.112-112-112s50.176-112 112-112zM672 458.667c17.664 0 32-14.304 32-32s-14.336-32-32-32c-17.664 0-32 14.304-32 32s14.336 32 32 32z" />
<glyph unicode="&#xe916;" glyph-name="catalog" d="M672 842.667c-64 0-128-32-160-64-32 32-96 64-160 64h-256v-768h256c64 0 128-32 160-64 32 32 96 64 160 64h256v768h-256zM512 91.179c-42.976 26.72-100.192 47.488-160 47.488h-192v640h192c43.488 0 92.512-23.008 114.752-45.248l45.248-45.28v-596.96zM832 298.667h-224v32h224v-32zM832 394.667h-224v32h224v-32zM832 490.667h-224v32h224v-32zM832 586.667h-224v32h224v-32z" />
<glyph unicode="&#xe917;" glyph-name="chat-im" d="M783.488 794.187c-69.472 69.504-165.472 112.48-271.488 112.48s-202.048-42.976-271.488-112.48c-69.504-69.504-112.512-165.472-112.512-271.52s43.008-202.016 112.512-271.52c69.44-69.504 165.44-112.48 271.488-112.48v-192l271.488 288.512c69.504 73.568 112.512 175.232 112.512 287.488 0 106.048-43.008 202.016-112.512 271.52zM736.864 279.051l-160.864-170.976v94.592h-64c-85.472 0-165.824 33.28-226.24 93.76-60.448 60.416-93.76 140.768-93.76 226.24s33.312 165.824 93.76 226.272 140.768 93.728 226.24 93.728 165.824-33.28 226.24-93.76c60.448-60.416 93.76-140.768 93.76-226.24 0-92.192-33.76-178.656-95.136-243.616zM560 522.667c0-26.51-21.49-48-48-48s-48 21.49-48 48c0 26.51 21.49 48 48 48s48-21.49 48-48zM720 522.667c0-26.51-21.49-48-48-48s-48 21.49-48 48c0 26.51 21.49 48 48 48s48-21.49 48-48zM400 522.667c0-26.51-21.49-48-48-48s-48 21.49-48 48c0 26.51 21.49 48 48 48s48-21.49 48-48z" />
<glyph unicode="&#xe918;" glyph-name="check" d="M832 10.666h-640c-52.929 0-96.001 43.072-96.001 95.999v640c0 52.929 43.072 96.001 96.001 96.001h640c52.927 0 95.999-43.072 95.999-96.001v-640c0.002-52.927-43.070-95.999-95.999-95.999zM192 778.666c-17.632 0-32.001-14.369-32.001-32.001v-640c0-17.665 14.369-31.999 32.001-31.999h640c17.665 0 31.999 14.336 31.999 31.999v640c0 17.632-14.336 32.001-31.999 32.001h-640z" />
<glyph unicode="&#xe919;" glyph-name="check_fill" d="M832 842.666h-640c-52.929 0-96.001-43.072-96.001-96.001v-640c0-52.927 43.072-95.999 96.001-95.999h640c52.927 0 95.999 43.072 95.999 95.999v640c0.002 52.931-43.070 96.001-95.999 96.001zM727.231 500.235l-256.224-259.007c-0.064-0.064-0.193-0.096-0.256-0.193-0.096-0.064-0.096-0.193-0.193-0.256-2.049-1.983-4.576-3.2-6.944-4.545-1.183-0.673-2.143-1.696-3.392-2.176-3.839-1.536-7.904-2.336-11.967-2.336-4.096 0-8.224 0.8-12.096 2.4-1.28 0.544-2.303 1.632-3.52 2.303-2.369 1.343-4.832 2.529-6.881 4.545-0.064 0.064-0.096 0.193-0.16 0.256-0.064 0.096-0.193 0.096-0.256 0.193l-126.017 129.503c-12.32 12.673-12.033 32.928 0.64 45.248 12.673 12.287 32.895 12.064 45.248-0.64l103.264-106.112 233.28 235.808c12.416 12.576 32.704 12.673 45.248 0.256 12.516-12.447 12.643-32.704 0.227-45.248z" />
<glyph unicode="&#xe91a;" glyph-name="check_selected" d="M726.977 545.483c-12.544 12.447-32.832 12.32-45.248-0.256l-233.281-235.808-103.264 106.112c-12.353 12.704-32.608 12.927-45.248 0.64-12.673-12.32-12.96-32.608-0.64-45.248l126.017-129.503c0.064-0.096 0.193-0.096 0.256-0.193 0.064-0.064 0.096-0.193 0.16-0.256 2.016-1.983 4.512-3.2 6.881-4.545 1.247-0.673 2.24-1.792 3.52-2.303 3.872-1.6 8.001-2.4 12.096-2.4 4.065 0 8.128 0.8 11.967 2.336 1.247 0.513 2.209 1.536 3.392 2.176 2.4 1.343 4.896 2.529 6.944 4.545 0.064 0.064 0.096 0.193 0.193 0.256 0.064 0.096 0.16 0.127 0.256 0.193l256.224 259.009c12.446 12.542 12.318 32.799-0.225 45.246zM832 10.666h-640c-52.929 0-96.001 43.072-96.001 95.999v640c0 52.929 43.072 96.001 96.001 96.001h640c52.927 0 95.999-43.072 95.999-96.001v-640c0.002-52.927-43.070-95.999-95.999-95.999zM192 778.666c-17.632 0-32.001-14.369-32.001-32.001v-640c0-17.665 14.369-31.999 32.001-31.999h640c17.665 0 31.999 14.336 31.999 31.999v640c0 17.632-14.336 32.001-31.999 32.001h-640z" />
<glyph unicode="&#xe91b;" glyph-name="client" d="M608 778.667l-64-32 128-192h-544v-96h416v-32h-512v-96h512v-32h-416v-96h416v-32h-320v-96h512l256 64v416z" />
<glyph unicode="&#xe91c;" glyph-name="clock-time" d="M512 874.667c-247.424 0-448-200.576-448-448s200.576-448 448-448c247.424 0 448 200.576 448 448s-200.576 448-448 448zM512 42.667c-211.744 0-384 172.256-384 384s172.256 384 384 384c211.744 0 384-172.256 384-384s-172.256-384-384-384zM724.672 661.995l-201.376-201.376-116.672 116.672-45.248-45.248 116.672-116.704-41.376-41.344 22.624-22.656 41.376 41.408 52.704-52.704 45.248 45.248-52.704 52.704 201.376 201.344z" />
<glyph unicode="&#xe91d;" glyph-name="close" d="M649.376 609.291l-137.376-137.376-137.376 137.376-45.248-45.248 137.376-137.376-137.376-137.376 45.248-45.248 137.376 137.376 137.376-137.376 45.248 45.248-137.376 137.376 137.376 137.376zM512 874.667c-247.392 0-448-200.608-448-448s200.608-448 448-448 448 200.608 448 448-200.608 448-448 448zM512 42.667c-211.744 0-384 172.256-384 384s172.256 384 384 384 384-172.256 384-384-172.256-384-384-384z" />
<glyph unicode="&#xe91e;" glyph-name="close-error" d="M722.88 704.939l-210.048-209.984-209.984 209.984-69.152-69.152 210.016-210.016-210.016-210.016 69.152-69.152 209.984 210.016 210.048-210.016 69.152 69.152-210.016 210.016 210.016 210.016z" />
<glyph unicode="&#xe91f;" glyph-name="cloud" d="M846.272 535.339c-14.176 138.144-128.96 243.328-270.272 243.328-133.184 0-246.112-98.656-267.968-226.752-11.936 1.824-23.968 2.752-36.032 2.752-132.352 0-240-107.648-240-240s107.648-240 240-240h480c132.352 0 240 107.648 240 240 0 97.152-57.728 183.264-145.728 220.672zM752 138.667h-480c-97.056 0-176 78.944-176 176s78.944 176 176 176c18.4 0 36.672-2.944 54.368-8.672l40.864-13.312 1.024 43.008c2.688 111.904 95.872 202.976 207.744 202.976 113.664 0 204.896-89.088 207.712-202.816l0.544-22.752 21.632-6.944c73.024-23.456 122.112-90.784 122.112-167.488 0-97.056-78.944-176-176-176z" />
<glyph unicode="&#xe920;" glyph-name="code" d="M274.752 663.915l-237.28-237.248 237.28-237.248 90.496 90.496-146.72 146.752 146.72 146.752zM749.248 663.915l-90.496-90.496 146.72-146.752-146.72-146.752 90.496-90.496 237.28 237.248z" />
<glyph unicode="&#xe921;" glyph-name="collaborate-group" d="M256 202.667c88.384 0 160 71.616 160 160s-71.616 160-160 160-160-71.616-160-160 71.616-160 160-160zM256 458.667c52.928 0 96-43.072 96-96s-43.072-96-96-96-96 43.072-96 96 43.072 96 96 96zM608 362.667c0-88.384 71.616-160 160-160s160 71.616 160 160-71.616 160-160 160-160-71.616-160-160zM768 458.667c52.928 0 96-43.072 96-96s-43.072-96-96-96-96 43.072-96 96 43.072 96 96 96zM672 714.667c0 88.384-71.616 160-160 160s-160-71.616-160-160 71.616-160 160-160 160 71.616 160 160zM512 618.667c-52.928 0-96 43.072-96 96s43.072 96 96 96 96-43.072 96-96-43.072-96-96-96zM384 138.667h-256c-35.36 0-64-28.672-64-64v-96h384v96c0 35.328-28.672 64-64 64zM896 138.667h-256c-35.328 0-64-28.672-64-64v-96h384v96c0 35.328-28.672 64-64 64z" />
<glyph unicode="&#xe922;" glyph-name="commandline-terminal" d="M246.624 180.043l182.624 182.624-182.624 182.624-45.248-45.248 137.376-137.376-137.376-137.376zM32 810.667v-768h960v768h-960zM928 106.667h-832v512h832v-512z" />
<glyph unicode="&#xe923;" glyph-name="compass" d="M512 746.667c-176.704 0-320-143.328-320-320 0-176.736 143.296-320 320-320 176.736 0 320 143.264 320 320 0 176.672-143.264 320-320 320zM576 362.667l-256-128 128 256 256 128-128-256zM512 874.667c-247.424 0-448-200.576-448-448s200.576-448 448-448 448 200.576 448 448-200.576 448-448 448zM512 42.667c-211.744 0-384 172.256-384 384s172.256 384 384 384 384-172.256 384-384-172.256-384-384-384zM544 426.667c0-17.673-14.327-32-32-32s-32 14.327-32 32c0 17.673 14.327 32 32 32s32-14.327 32-32z" />
<glyph unicode="&#xe924;" glyph-name="compressed" d="M96 842.667v-832h832v832h-832zM160 778.667h704v-576h-704v576zM480 650.667h64v-32h-64v32zM480 714.667h64v-32h-64v32zM480 586.667h64v-32h-64v32zM480 522.667h64v-32h-64v32zM480 458.667l-32-128v-64h128v64l-32 128z" />
<glyph unicode="&#xe925;" glyph-name="configure" d="M971.712 750.635l-135.84-135.872c-18.752-18.72-43.296-28.096-67.872-28.096s-49.12 9.376-67.872 28.128c-37.504 37.472-37.504 98.272-0.032 135.776l135.84 135.84c-30.688 13.024-64.48 20.256-99.936 20.256-141.408 0-256-114.624-256-256 0-29.248 5.152-57.248 14.176-83.392l-429.376-429.408c-43.744-43.744-43.744-114.656 0-158.4 21.888-21.856 50.56-32.8 79.2-32.8s57.312 10.944 79.2 32.8l429.376 429.376c26.176-9.024 54.176-14.176 83.424-14.176 141.376 0 256 114.624 256 256 0 35.488-7.264 69.28-20.288 99.968zM736 458.667c-20.928 0-41.984 3.584-62.528 10.688l-37.856 13.088-457.664-457.696c-9.088-9.088-21.152-14.080-33.952-14.080s-24.864 4.992-33.92 14.080c-9.088 9.056-14.080 21.12-14.080 33.92 0 12.832 4.992 24.864 14.080 33.952l457.696 457.664-13.056 37.824c-7.136 20.576-10.72 41.632-10.72 62.56 0 92.832 66.208 170.496 153.92 188.192l-43.104-43.072c-62.336-62.4-62.304-163.904 0.032-226.24 30.208-30.208 70.4-46.88 113.152-46.88 42.72 0 82.912 16.64 113.12 46.88l43.104 43.104c-17.728-87.744-95.392-153.984-188.224-153.984zM176 58.667c0-17.673-14.327-32-32-32s-32 14.327-32 32c0 17.673 14.327 32 32 32s32-14.327 32-32z" />
<glyph unicode="&#xe926;" glyph-name="configure-manage" d="M411.456 714.667c-14.272 55.104-63.904 96-123.456 96s-109.184-40.896-123.456-96h-132.544v-64h132.544c14.272-55.104 63.904-96 123.456-96s109.184 40.896 123.456 96h580.544v64h-580.544zM288 650.667c-17.664 0-32 14.336-32 32s14.336 32 32 32 32-14.336 32-32-14.336-32-32-32zM736 554.667c-59.552 0-109.184-40.896-123.456-96h-580.544v-64h580.544c14.272-55.104 63.904-96 123.456-96s109.184 40.896 123.456 96h132.544v64h-132.544c-14.272 55.104-63.904 96-123.456 96zM736 394.667c-17.664 0-32 14.336-32 32s14.336 32 32 32 32-14.336 32-32-14.336-32-32-32zM288 298.667c-59.552 0-109.184-40.896-123.456-96h-132.544v-64h132.544c14.272-55.104 63.904-96 123.456-96s109.184 40.896 123.456 96h580.544v64h-580.544c-14.272 55.104-63.904 96-123.456 96zM288 138.667c-17.664 0-32 14.336-32 32s14.336 32 32 32 32-14.336 32-32-14.336-32-32-32z" />
<glyph unicode="&#xe927;" glyph-name="copy" d="M672 714.667v192h-512v-768h192v-192h512v768h-192zM352 202.667h-128v640h384v-128h-256v-512zM800 10.667h-384v640h384v-640zM480 522.667h256v-32h-256v32zM480 458.667h256v-32h-256v32zM480 394.667h256v-32h-256v32zM480 330.667h128v-32h-128v32z" />
<glyph unicode="&#xe928;" glyph-name="create-new" d="M480 170.667h64v160h160v64h-160v160h-64v-160h-160v-64h160zM32 810.667v-768h960v768h-960zM928 106.667h-832v512h832v-512z" />
<glyph unicode="&#xe929;" glyph-name="cut" d="M864 522.667h-320v132.544c55.104 14.272 96 63.904 96 123.456 0 70.688-57.312 128-128 128s-128-57.312-128-128c0-59.552 40.896-109.184 96-123.456v-132.544c-35.392 0-64-28.64-64-64h-132.544c-14.272 55.104-63.904 96-123.456 96-70.688 0-128-57.312-128-128s57.312-128 128-128c59.552 0 109.184 40.896 123.456 96h132.544v-320l128-128v448h448l-128 128zM160 362.667c-35.296 0-64 28.672-64 64s28.704 64 64 64 64-28.672 64-64-28.704-64-64-64zM480 426.667c-17.696 0-32 14.336-32 32s14.304 32 32 32c17.664 0 32-14.336 32-32s-14.336-32-32-32zM512 714.667c-35.328 0-64 28.672-64 64s28.672 64 64 64 64-28.64 64-64-28.672-64-64-64z" />
<glyph unicode="&#xe92a;" glyph-name="dashboard" d="M398.88 249.547c-30.208 30.208-46.88 70.4-46.88 113.12 0 88.224 71.776 160 160 160s160-71.776 160-160c0-42.72-16.672-82.912-46.88-113.12l45.248-45.248c42.304 42.304 65.632 98.528 65.632 158.368 0 123.52-100.512 224-224 224s-224-100.48-224-224c0-59.84 23.328-116.064 65.632-158.368l45.248 45.248zM480 138.667h64l-32 288zM32 810.667v-768h960v768h-960zM928 106.667h-832v512h832v-512z" />
<glyph unicode="&#xe92b;" glyph-name="database-server" d="M96 842.667v-832h832v832h-832zM864 74.667h-704v192h704v-192zM864 330.667h-704v192h704v-192zM768 714.667c17.664 0 32-14.336 32-32s-14.336-32-32-32-32 14.336-32 32 14.336 32 32 32zM800 426.667c0-17.673-14.327-32-32-32s-32 14.327-32 32c0 17.673 14.327 32 32 32s32-14.327 32-32zM800 170.667c0-17.673-14.327-32-32-32s-32 14.327-32 32c0 17.673 14.327 32 32 32s32-14.327 32-32z" />
<glyph unicode="&#xe92c;" glyph-name="debug" d="M992 458.667h-65.632c-15.584 204.128-178.24 366.784-382.368 382.368v65.632h-64v-65.632c-204.128-15.584-366.784-178.24-382.368-382.368h-65.632v-64h65.632c15.584-204.128 178.24-366.784 382.368-382.368v-65.632h64v65.632c204.128 15.584 366.784 178.24 382.368 382.368h65.632v64zM862.368 458.667h-96.576c-14.464 115.712-106.048 207.328-221.792 221.792v96.576c168.576-15.264 303.104-149.792 318.368-318.368zM733.44 394.667c-14.080-97.888-91.552-175.328-189.44-189.44v125.44h-64v-125.44c-97.888 14.080-175.328 91.552-189.44 189.44h125.44v64h-125.44c14.080 97.888 91.552 175.328 189.44 189.44v-125.44h64v125.44c97.888-14.080 175.328-91.552 189.44-189.44h-125.44v-64h125.44zM480 777.035v-96.576c-115.744-14.464-207.328-106.080-221.792-221.792h-96.576c15.264 168.576 149.792 303.104 318.368 318.368zM161.632 394.667h96.576c14.464-115.712 106.048-207.328 221.792-221.792v-96.576c-168.576 15.264-303.104 149.792-318.368 318.368zM544 76.299v96.576c115.744 14.464 207.328 106.080 221.792 221.792h96.576c-15.264-168.576-149.792-303.104-318.368-318.368z" />
<glyph unicode="&#xe92d;" glyph-name="deploy" d="M982.624 673.291l-214.624 214.624-214.624-214.624 45.248-45.248 137.376 137.376v-434.752c0-176.448-143.552-320-320-320s-320 143.552-320 320c0 85.472 33.28 165.824 93.728 226.272l-45.248 45.248c-72.544-72.544-112.48-168.96-112.48-271.52 0-211.744 172.256-384 384-384s384 172.256 384 384v434.752l137.376-137.376 45.248 45.248zM512 330.667c0-53.019-42.981-96-96-96s-96 42.981-96 96c0 53.019 42.981 96 96 96s96-42.981 96-96z" />
<glyph unicode="&#xe92e;" glyph-name="document" d="M576 906.667h-384v-960h640v704l-256 256zM768 10.667h-512v832h288v-224h224v-608zM320 522.667h384v-32h-384v32zM320 458.667h384v-32h-384v32zM320 394.667h192v-32h-192v32z" />
<glyph unicode="&#xe92f;" glyph-name="down" d="M480 650.667h64v-448h-64v448zM512 874.667c-247.392 0-448-200.608-448-448s200.608-448 448-448 448 200.608 448 448-200.608 448-448 448zM512 42.667c-211.744 0-384 172.256-384 384s172.256 384 384 384 384-172.256 384-384-172.256-384-384-384z" />
<glyph unicode="&#xe930;" glyph-name="upload-export" d="M480 765.419v-530.752h64v530.752l201.376-201.376 45.248 45.248-278.624 278.656-278.624-278.656 45.248-45.248zM928 330.667v-256h-832v256h-64v-384h960v384z" />
<glyph unicode="&#xe931;" glyph-name="download-import" d="M790.656 500.043l-45.248 45.28-201.408-201.44v530.784h-64v-530.72l-201.344 201.376-45.248-45.28 278.624-278.624zM928 330.667v-256h-832v256h-64v-384h960v384z" />
<glyph unicode="&#xe932;" glyph-name="edit" d="M703.994 810.679l96.007 96.007 191.992-191.992-96.007-96.007-191.992 191.992zM160 266.667l192-192 480 480-192 192-480-480zM352 165.195l-101.504 101.472 389.504 389.472 101.504-101.472-389.504-389.472zM32-53.333l160 64-96 96z" />
<glyph unicode="&#xe933;" glyph-name="edit_undo" d="M991.99 714.697l-96.007-96.007-191.992 191.992 96.007 96.007 191.992-191.992zM160 266.667l192-192 480 480-192 192-480-480zM352 165.195l-101.504 101.472 389.504 389.472 101.504-101.472-389.504-389.472zM32-53.333l160 64-96 96zM233.669 617.747l55.752 57.376 474.293-460.868-55.752-57.376-474.293 460.868z" />
<glyph unicode="&#xe934;" glyph-name="email" d="M512 810.667l-480-256v-512h960v512l-480 256zM224 586.667h576v-134.4l-288-153.6-288 153.6v134.4zM928 106.667h-832v381.888l416-221.888 416 221.888v-381.888z" />
<glyph unicode="&#xe935;" glyph-name="exchange" d="M332.256 776.235c-12 4.992-25.727 2.24-34.88-6.944l-192-192c-12.513-12.513-12.513-32.735 0-45.248s32.735-12.513 45.248 0l137.377 137.377v-530.752c0-17.696 14.336-32.001 31.999-32.001s31.999 14.303 31.999 32.001v607.999c0.002 12.927-7.808 24.607-19.743 29.568zM918.624 321.291c-12.513 12.513-32.735 12.513-45.248 0l-105.376-105.376v530.752c0 17.665-14.303 32.001-32.001 32.001s-32.001-14.336-32.001-32.001v-608.001c0-12.927 7.775-24.64 19.744-29.568 3.968-1.663 8.128-2.432 12.256-2.432 8.321 0 16.512 3.263 22.624 9.377l160.001 160.001c12.513 12.513 12.513 32.735 0 45.248z" />
<glyph unicode="&#xe936;" glyph-name="file" d="M576 906.667h-384v-960h640v704l-256 256zM768 10.667h-512v832h288v-224h224v-608z" />
<glyph unicode="&#xe937;" glyph-name="fileextension" d="M446.848 253.099c-4.96 6.496-11.2 11.68-18.688 15.616-7.52 3.904-16.48 5.856-26.88 5.856-8.192 0-15.712-1.632-22.528-4.864-6.816-3.264-12.48-8.448-16.896-15.616h-0.512v16.928h-34.56v-178.72h36.352v62.72h0.512c4.448-6.496 10.112-11.36 17.024-14.72 6.912-3.328 14.464-4.96 22.656-4.96 9.728 0 18.208 1.888 25.472 5.632s13.312 8.768 18.176 15.104c4.864 6.304 8.48 13.568 10.88 21.792 2.4 8.192 3.584 16.672 3.584 25.568 0 9.408-1.216 18.4-3.584 27.040-2.4 8.576-6.048 16.128-11.008 22.624zM423.552 188.843c-1.024-5.12-2.784-9.632-5.248-13.44-2.464-3.872-5.728-6.976-9.728-9.376-4-2.368-8.992-3.552-14.976-3.552-5.792 0-10.752 1.184-14.848 3.552-4.096 2.4-7.392 5.504-9.856 9.376-2.496 3.808-4.256 8.32-5.376 13.44s-1.664 10.304-1.664 15.616c0 5.44 0.512 10.752 1.536 15.84 1.024 5.12 2.784 9.664 5.248 13.6 2.464 3.904 5.696 7.136 9.728 9.568 4 2.496 8.992 3.744 14.976 3.744 5.792 0 10.72-1.248 14.72-3.744 4-2.432 7.296-5.696 9.856-9.696 2.56-4.032 4.416-8.608 5.504-13.728 1.12-5.12 1.664-10.336 1.664-15.584 0-5.28-0.512-10.464-1.536-15.616zM510.592 268.843c-7.36-3.84-13.44-8.928-18.304-15.264-4.864-6.304-8.544-13.632-11.008-21.888-2.496-8.288-3.712-16.864-3.712-25.76 0-9.184 1.248-18.048 3.712-26.624 2.464-8.512 6.144-16.064 11.008-22.624 4.864-6.592 11.040-11.808 18.56-15.616 7.52-3.84 16.224-5.76 26.112-5.76 8.704 0 16.512 1.568 23.424 4.704 6.912 3.168 12.512 8.352 16.768 15.456h0.512v-16.8h34.56v182.784h-36.352v-66.56h-0.512c-4.096 6.464-9.696 11.424-16.768 14.72-7.104 3.296-14.56 4.992-22.4 4.992-9.728 0-18.272-1.92-25.6-5.76zM560.768 243.595c3.936-2.368 7.136-5.504 9.6-9.312 2.496-3.84 4.224-8.288 5.248-13.312 1.024-5.056 1.536-10.304 1.536-15.744 0-5.472-0.512-10.752-1.536-15.872s-2.72-9.696-5.12-13.696c-2.4-4-5.6-7.232-9.6-9.632-4-2.368-8.992-3.552-14.976-3.552-5.632 0-10.464 1.248-14.464 3.68-4 2.496-7.328 5.76-9.984 9.76-2.624 4-4.576 8.544-5.76 13.696-1.216 5.12-1.792 10.24-1.792 15.36 0 5.44 0.544 10.688 1.664 15.744 1.12 4.992 2.912 9.504 5.376 13.44 2.496 3.904 5.76 7.072 9.856 9.44 4.096 2.4 9.12 3.616 15.104 3.616 5.984 0.032 10.912-1.216 14.848-3.616zM647.552 138.667h36.352v108.032h25.088v24.352h-25.088v7.904c0 5.472 1.056 9.344 3.2 11.648 2.112 2.304 5.664 3.456 10.624 3.456 4.608 0 9.056-0.256 13.312-0.736v27.104c-3.072 0.192-6.24 0.384-9.472 0.64s-6.496 0.384-9.728 0.384c-14.848 0-25.92-3.744-33.28-11.296-7.328-7.488-11.008-17.12-11.008-28.896v-10.208h-21.76v-24.352h21.76v-108.032zM576 906.667h-384v-960h640v704l-256 256zM768 10.667h-512v832h288v-224h224v-608z" />
<glyph unicode="&#xe938;" glyph-name="filter_off" d="M992 906.667h-960v-128l384-384v-448l192 192v108.128c23.456-26.816 57.536-44.128 96-44.128 70.72 0 128 57.28 128 128s-57.28 128-128 128c-13.536 0-26.304-2.656-38.56-6.56l326.56 326.56v128zM768 330.667c0-35.296-28.736-64-64-64-35.296 0-64 28.704-64 64s28.704 64 64 64c35.264 0 64-28.704 64-64zM562.752 439.915l-18.752-18.72v-256l-64-64v320l-18.752 18.72-338.72 338.752h778.976l-338.752-338.752z" />
<glyph unicode="&#xe939;" glyph-name="filter_on" d="M992 906.667h-960v-128l384-384v-448l192 192v108.128c23.424-26.816 57.536-44.128 96-44.128 70.72 0 128 57.28 128 128s-57.28 128-128 128c-13.536 0-26.304-2.656-38.56-6.56l326.56 326.56v128zM768 330.667c0-35.328-28.736-64-64-64-35.328 0-64 28.672-64 64s28.672 64 64 64c35.264 0 64-28.672 64-64z" />
<glyph unicode="&#xe93a;" glyph-name="flow" d="M768 330.667c-77.408 0-141.92-54.976-156.768-128h-198.432c-4.16 20.416-12.288 39.36-23.392 56.128l290.496 290.464c25.248-16.736 55.488-26.592 88.096-26.592 88.384 0 160 71.616 160 160s-71.616 160-160 160c-77.408 0-141.92-54.976-156.768-128h-198.432c-14.848 73.024-79.392 128-156.8 128-88.384 0-160-71.616-160-160s71.616-160 160-160c77.408 0 141.952 54.976 156.768 128h198.432c4.16-20.416 12.288-39.36 23.392-56.128l-290.496-290.464c-25.248 16.736-55.488 26.592-88.096 26.592-88.384 0-160-71.616-160-160s71.616-160 160-160c77.408 0 141.952 54.976 156.768 128h198.432c14.848-73.024 79.392-128 156.768-128 88.384 0 160 71.616 160 160s-71.584 160-159.968 160zM768 778.667c53.024 0 96-42.976 96-96s-42.976-96-96-96-96 42.976-96 96 42.976 96 96 96zM256 586.667c-53.024 0-96 42.976-96 96s42.976 96 96 96 96-42.976 96-96-42.976-96-96-96zM256 74.667c-53.024 0-96 42.976-96 96s42.976 96 96 96 96-42.976 96-96-42.976-96-96-96z" />
<glyph unicode="&#xe93b;" glyph-name="folder" d="M416 682.667v96h-384v-704h960v608h-576zM928 138.667h-832v448h832v-448z" />
<glyph unicode="&#xe93c;" glyph-name="top" d="M192 906.667h640v-128h-640v128zM233.376 353.291l45.248-45.248 201.376 201.408v-530.784h64v530.72l201.376-201.344 45.248 45.248-278.656 278.624z" />
<glyph unicode="&#xe93d;" glyph-name="format_bottom" d="M192 74.667h640v-128h-640v128zM790.624 500.043l-45.248 45.248-201.376-201.408v530.784h-64v-530.72l-201.376 201.344-45.248-45.248 278.656-278.624z" />
<glyph unicode="&#xe93e;" glyph-name="format_spellcheck" d="M218.624 406.827v103.328c0 12.032-2.688 21.696-8.064 28.96-5.376 7.328-12.288 12.992-20.736 17.088s-17.792 6.848-28.032 8.256c-10.24 1.408-20.352 2.112-30.336 2.112-11.008 0-21.952-1.088-32.832-3.296-10.88-2.144-20.672-5.824-29.376-10.944s-15.872-11.904-21.504-20.352c-5.632-8.448-8.832-19.072-9.6-31.872h54.528c1.024 10.752 4.608 18.432 10.752 23.040 6.144 4.64 14.592 6.944 25.344 6.944 4.864 0 9.408-0.352 13.632-0.96 4.224-0.672 7.936-1.952 11.136-3.84s5.76-4.576 7.68-8.064c1.92-3.456 2.88-8.128 2.88-14.048 0.256-5.632-1.408-9.92-4.992-12.832-3.584-2.976-8.448-5.184-14.592-6.72s-13.184-2.688-21.12-3.456c-7.968-0.736-16-1.792-24.192-3.072s-16.32-3.040-24.384-5.184c-8.064-2.176-15.232-5.44-21.504-9.792-6.272-4.384-11.392-10.176-15.36-17.504-3.968-7.264-5.952-16.544-5.952-27.808 0-10.24 1.728-19.104 5.184-26.496 3.456-7.456 8.256-13.6 14.4-18.432 6.144-4.864 13.312-8.448 21.504-10.752s17.024-3.456 26.496-3.456c12.288 0 24.32 1.824 36.096 5.376 11.776 3.584 22.016 9.856 30.72 18.816 0.256-3.328 0.704-6.592 1.344-9.792s1.472-6.336 2.496-9.408h55.296c-2.56 4.096-4.352 10.24-5.376 18.432s-1.536 16.768-1.536 25.728zM164.096 439.467c0-3.104-0.32-7.2-0.96-12.32s-2.368-10.144-5.184-15.168c-2.816-4.992-7.168-9.28-13.056-12.864-5.888-3.552-14.208-5.376-24.96-5.376-4.352 0-8.576 0.416-12.672 1.152-4.096 0.768-7.68 2.112-10.752 4.032s-5.504 4.576-7.296 7.872c-1.792 3.328-2.688 7.424-2.688 12.288 0 5.12 0.896 9.344 2.688 12.672 1.792 3.296 4.16 6.048 7.104 8.256 2.944 2.176 6.4 3.904 10.368 5.184s8 2.304 12.096 3.072c4.352 0.8 8.704 1.44 13.056 1.952s8.512 1.152 12.48 1.92c3.968 0.768 7.68 1.728 11.136 2.88s6.336 2.752 8.64 4.8v-20.352zM312.704 388.011h0.768c5.888-11.008 14.592-18.816 26.112-23.424s24.576-6.912 39.168-6.912c9.984 0 19.84 2.048 29.568 6.144s18.496 10.368 26.304 18.816c7.808 8.448 14.144 19.264 19.008 32.448s7.296 28.864 7.296 47.072c0 18.144-2.432 33.856-7.296 47.040s-11.2 24-19.008 32.448c-7.808 8.48-16.576 14.72-26.304 18.816s-19.584 6.144-29.568 6.144c-12.288 0-24.128-2.368-35.52-7.104s-20.416-12.256-27.072-22.464h-0.768v99.84h-54.528v-274.208h51.84v25.344zM316.16 485.931c1.792 7.68 4.608 14.464 8.448 20.384 3.84 5.888 8.704 10.56 14.592 14.016s12.8 5.184 20.736 5.184c8.192 0 15.168-1.728 20.928-5.184 5.76-3.424 10.56-8.128 14.4-14.016 3.84-5.92 6.656-12.704 8.448-20.384 1.792-7.648 2.688-15.712 2.688-24.192 0-8.192-0.896-16.128-2.688-23.808-1.792-7.648-4.608-14.432-8.448-20.352-3.84-5.888-8.64-10.56-14.4-14.016s-12.736-5.184-20.928-5.184c-7.936 0-14.848 1.728-20.736 5.184-5.888 3.424-10.752 8.128-14.592 14.016-3.84 5.92-6.688 12.704-8.448 20.352-1.792 7.68-2.688 15.616-2.688 23.808 0 8.448 0.896 16.512 2.688 24.192zM516.992 386.091c8.704-8.96 19.264-15.936 31.68-20.928s26.048-7.488 40.896-7.488c26.368 0 48 6.912 64.896 20.768 16.896 13.824 27.136 33.92 30.72 60.288h-52.608c-1.792-12.288-6.208-22.112-13.248-29.376-7.040-7.296-17.088-10.944-30.144-10.944-8.448 0-15.616 1.92-21.504 5.76s-10.56 8.768-14.016 14.784c-3.456 6.048-5.952 12.736-7.488 20.16s-2.304 14.72-2.304 21.92c0 7.392 0.768 14.912 2.304 22.464 1.536 7.52 4.16 14.432 7.872 20.736 3.712 6.272 8.512 11.392 14.4 15.36s13.184 5.952 21.888 5.952c23.296 0 36.736-11.392 40.32-34.176h53.376c-0.768 12.8-3.84 23.872-9.216 33.216s-12.352 17.152-20.928 23.424c-8.576 6.272-18.304 10.944-29.184 14.016-10.88 3.104-22.208 4.64-33.984 4.64-16.128 0-30.464-2.688-43.008-8.064s-23.168-12.864-31.872-22.464c-8.704-9.6-15.328-20.992-19.776-34.176-4.48-13.184-6.72-27.424-6.72-42.816 0-14.848 2.432-28.48 7.296-40.864 4.864-12.544 11.648-23.232 20.352-32.192zM896 490.667l-352-352-160 160-96-96 256-256 448 448z" />
<glyph unicode="&#xe93f;" glyph-name="forum" d="M879.488 794.187c-69.472 69.504-165.472 112.48-271.488 112.48s-202.048-42.976-271.488-112.48c-69.504-69.504-112.512-165.472-112.512-271.52 0-33.44 4.736-65.728 12.736-96.64-4.192 0.288-8.416 0.64-12.736 0.64-52.992 0-100.992-21.504-135.744-56.256-34.752-34.72-56.256-82.72-56.256-135.744 0-56.128 21.504-106.976 56.256-143.744l135.744-144.256v96c52.992 0 100.992 21.504 135.744 56.256 25.44 25.408 43.616 57.984 51.648 94.336 57.536-34.432 124.672-54.592 196.608-54.592v-192l271.488 288.512c69.504 73.568 112.512 175.232 112.512 287.488 0 106.048-43.008 202.016-112.512 271.52zM832.864 279.051l-160.864-170.976v94.592h-64c-71.68 0-139.552 23.68-195.328 66.88-7.2 39.008-25.984 73.952-52.928 100.864-14.432 14.432-31.264 26.4-49.664 35.68-14.336 36.672-22.080 76-22.080 116.576 0 85.472 33.312 165.824 93.76 226.272s140.768 93.728 226.24 93.728 165.824-33.28 226.24-93.76c60.448-60.416 93.76-140.768 93.76-226.24 0-92.192-33.76-178.656-95.136-243.616zM656 522.667c0-26.51-21.49-48-48-48s-48 21.49-48 48c0 26.51 21.49 48 48 48s48-21.49 48-48zM816 522.667c0-26.51-21.49-48-48-48s-48 21.49-48 48c0 26.51 21.49 48 48 48s48-21.49 48-48zM496 522.667c0-26.51-21.49-48-48-48s-48 21.49-48 48c0 26.51 21.49 48 48 48s48-21.49 48-48z" />
<glyph unicode="&#xe940;" glyph-name="gauge" d="M512 874.667c-247.424 0-448-200.576-448-448s200.576-448 448-448 448 200.576 448 448-200.576 448-448 448zM512 42.667c-211.744 0-384 172.256-384 384s172.256 384 384 384 384-172.256 384-384-172.256-384-384-384zM480 394.667l64-64 192 320-320-192z" />
<glyph unicode="&#xe941;" glyph-name="globe" d="M274.4 333.067c65.6-65.6 151.584-98.4 237.6-98.4 80.992 0 161.76 29.504 225.728 87.68l0.576-0.576 22.624 22.624-0.576 0.608c119.936 131.808 116.64 335.904-10.752 463.264-65.6 65.6-151.584 98.4-237.6 98.4-80.992 0-161.76-29.504-225.728-87.68l-0.544 0.576-22.624-22.624 0.576-0.608c-119.968-131.808-116.64-335.872 10.72-463.264zM512 842.667c72.672 0 140.96-28.32 192.352-79.648 102.208-102.24 105.6-266.112 10.72-372.768l-383.552 383.552c49.824 44.32 113.152 68.864 180.48 68.864zM692.48 367.531c-49.824-44.32-113.152-68.864-180.48-68.864-72.672 0-140.96 28.32-192.352 79.648-102.208 102.208-105.6 266.080-10.72 372.768l383.552-383.552zM840.096 898.763l-45.248-45.248c75.552-75.552 117.152-175.968 117.152-282.848s-41.6-207.328-117.152-282.848c-75.52-75.52-175.968-117.152-282.848-117.152s-207.328 41.632-282.848 117.152l-45.248-45.248c87.584-87.648 204.128-135.904 328.096-135.904s240.512 48.256 328.096 135.904c87.616 87.616 135.904 204.16 135.904 328.096s-48.288 240.48-135.904 328.096zM352 42.667h320v-96h-320v96z" />
<glyph unicode="&#xe942;" glyph-name="heart" d="M704 810.667c-81.632 0-152.832-43.808-192-109.056-39.168 65.248-110.368 109.056-192 109.056-123.712 0-224-100.288-224-224 0-61.856 24.352-118.592 64-160 90.080-94.080 352-384 352-384s261.92 289.92 352 384c39.648 41.408 64 98.144 64 160 0 123.712-100.288 224-224 224zM817.792 470.923c-67.168-70.112-225.824-244.64-305.792-332.896-79.968 88.224-238.624 262.752-305.792 332.896-29.792 31.136-46.208 72.224-46.208 115.744 0 88.224 71.776 160 160 160 56.576 0 107.808-29.152 137.12-77.984l54.88-91.424 54.88 91.424c29.312 48.832 80.544 77.984 137.12 77.984 88.224 0 160-71.776 160-160 0-43.52-16.416-84.608-46.208-115.744z" />
<glyph unicode="&#xe943;" glyph-name="help-ring" d="M512 874.667c-247.392 0-448-200.608-448-448s200.608-448 448-448 448 200.608 448 448-200.608 448-448 448zM736 426.667c0-28.576-5.568-55.776-15.328-80.896-22.752-58.528-69.248-104.992-127.744-127.744-25.12-9.792-52.352-15.36-80.928-15.36s-55.808 5.568-80.928 15.328c-58.496 22.752-104.992 69.248-127.744 127.744-9.76 25.152-15.328 52.352-15.328 80.928s5.568 55.776 15.328 80.864c22.752 58.528 69.28 105.056 127.744 127.808 25.152 9.76 52.352 15.328 80.928 15.328s55.776-5.568 80.928-15.328c58.464-22.72 104.992-69.28 127.744-127.808 9.76-25.088 15.328-52.288 15.328-80.864zM617.152 659.819c-32.128 14.56-67.648 22.848-105.152 22.848s-73.024-8.288-105.152-22.848l-94.336 94.336c58.24 35.616 126.368 56.512 199.488 56.512s141.248-20.896 199.488-56.512l-94.336-94.336zM278.848 321.515l-94.336-94.336c-35.616 58.208-56.512 126.368-56.512 199.488s20.896 141.28 56.512 199.488l94.336-94.336c-14.528-32.128-22.848-67.648-22.848-105.152s8.32-73.024 22.848-105.152zM406.848 193.515c32.128-14.56 67.648-22.848 105.152-22.848s73.024 8.288 105.152 22.848l94.336-94.336c-58.24-35.616-126.368-56.512-199.488-56.512s-141.248 20.896-199.488 56.512l94.336 94.336zM745.152 531.819l94.336 94.336c35.616-58.208 56.512-126.368 56.512-199.488s-20.896-141.28-56.512-199.488l-94.336 94.336c14.528 32.128 22.848 67.648 22.848 105.152s-8.32 73.024-22.848 105.152z" />
<glyph unicode="&#xe944;" glyph-name="help-question" d="M424.844 521.651c0 0 14.047 86.422 100.469 76.703 86.438-9.734 67-74.547 58.344-87.516-8.656-21.594-88.594-73.453-101.547-104.797-12.969-31.313-11.891-89.656-11.891-89.656h77.781c0 0-4.313 61.594 38.875 87.531 43.25 25.906 116.688 101.531 84.281 173.906-51.844 83.188-102.625 91.828-168.531 89.672-65.891-2.156-135.031-34.578-157.719-135.031 54.016-7.577 79.938-10.812 79.938-10.812v0zM469.141 287.229h81.016v-88.562h-81.016v88.562zM64.281 412.151v28.016c0.266 1.953 0.531 3.922 0.766 5.891 2.859 23.609 4.172 47.547 8.828 70.813 14.094 70.281 44 133.5 88.969 189.406 48.5 60.328 108.578 105.313 180.203 134.703 42.813 17.578 87.359 28.172 133.578 31.547 7.625 0.547 15.234 1.219 22.859 1.844h25.016c2.297-0.281 4.594-0.688 6.875-0.781 40.875-1.625 80.75-8.75 119.594-21.531 82.531-27.156 151.656-74.234 206.781-141.313 58.5-71.203 91.906-153 100.188-244.938 3.813-42.797 1.469-85.266-6.875-127.328-9.813-49.282-27.438-95.594-53.063-138.813-42.438-71.688-100.25-127.688-173.5-167.188-75.25-40.656-155.875-57.875-241.313-52.563-43.031 2.656-84.969 10.875-125.156 26.281-124.031 47.532-211.672 132.782-262.125 255.751-16.797 40.938-26.39 83.719-29.734 127.906-0.563 7.438-1.25 14.875-1.891 22.297v0zM512.172 34.292c217.766 0.688 392.266 176 392.016 392.344-0.281 217.234-175.281 391.656-391.844 391.891-216.5 0.25-392.078-175.188-392.25-391.953-0.172-216.407 175.594-392.282 392.078-392.282v0z" />
<glyph unicode="&#xe945;" glyph-name="home" d="M512 906.667l-448-448 96-96v-416h704v416l96 96-448 448zM800 10.667h-576v416l288 288 288-288v-416zM576 426.667c0-35.346-28.654-64-64-64s-64 28.654-64 64c0 35.346 28.654 64 64 64s64-28.654 64-64z" />
<glyph unicode="&#xe946;" glyph-name="idea" d="M512 906.667c-194.432 0-352-157.568-352-352s157.568-352 352-352 352 157.568 352 352-157.568 352-352 352zM512 266.667c-158.816 0-288 129.216-288 288s129.184 288 288 288 288-129.216 288-288-129.184-288-288-288zM384 170.667h256v-128h-256v128zM512-53.333c35.328 0 64 28.672 64 64h-128c0-35.328 28.672-64 64-64zM512 330.667l128 192h-256l128-192zM512 388.363l-68.224 102.304h136.448l-68.224-102.304z" />
<glyph unicode="&#xe947;" glyph-name="industry" d="M928 906.667h-128l-32-480h-224v128l-256-128v128l-256-128v-480h960l-64 960zM96 10.667v352h667.744l-23.488-352h-644.256z" />
<glyph unicode="&#xe948;" glyph-name="insert" d="M937.376 225.291l-137.376-137.376v434.752c0 211.744-172.256 384-384 384s-384-172.256-384-384h64c0 176.448 143.552 320 320 320s320-143.552 320-320v-434.752l-137.376 137.376-45.248-45.248 214.624-214.624 214.624 214.624-45.248 45.248z" />
<glyph unicode="&#xe949;" glyph-name="inventory" d="M768 458.667v384h-512v-384h-160v-448h832v448h-160zM320 778.667h384v-320h-384v320zM864 74.667h-704v320h704v-320zM384 650.667h256v-32h-256v32zM384 586.667h256v-32h-256v32zM608 234.667h-192v32h-32v-64h256v64h-32z" />
<glyph unicode="&#xe94a;" glyph-name="layout_maximize" d="M32 810.667v-768h960v768h-960zM928 106.667h-832v512h832v-512zM598.624 244.043l201.376 201.376v-146.752h64v256h-256v-64h146.752l-201.376-201.376z" />
<glyph unicode="&#xe94b;" glyph-name="layout_minimize" d="M32 810.667v-768h960v768h-960zM96 746.667h832v-512h-832v512zM425.376 609.291l-201.376-201.376v146.752h-64v-256h256v64h-146.752l201.376 201.376z" />
<glyph unicode="&#xe94c;" glyph-name="link" d="M926.4 841.067c-40.544 40.512-96.544 65.6-158.4 65.6s-117.856-25.088-158.4-65.6l-96-96c-40.512-40.544-65.6-96.544-65.6-158.4 0-38.592 9.152-75.488 25.856-107.648l-14.176-14.176c-32.192 16.672-69.088 25.824-107.68 25.824-61.856 0-117.856-25.088-158.4-65.6l-96-96c-40.512-40.544-65.6-96.544-65.6-158.4s25.088-117.856 65.6-158.4 96.544-65.6 158.4-65.6 117.856 25.088 158.4 65.6l96 96c40.512 40.544 65.6 96.544 65.6 158.4 0 38.592-9.152 75.488-25.856 107.648l14.176 14.176c32.192-16.672 69.088-25.824 107.68-25.824 61.856 0 117.856 25.088 158.4 65.6l96 96c40.512 40.544 65.6 96.544 65.6 158.4s-25.088 117.856-65.6 158.4zM512 266.667c0-42.72-16.64-82.912-46.848-113.152l-96-96c-30.24-30.208-70.432-46.848-113.152-46.848s-82.912 16.64-113.152 46.848c-30.208 30.24-46.848 70.432-46.848 113.152s16.64 82.912 46.848 113.152l96 96c30.24 30.208 70.432 46.848 113.152 46.848 20.544 0 40.448-3.904 58.88-10.624l-136.128-136.128 90.496-90.496 136.128 136.128c6.72-18.432 10.624-38.336 10.624-58.88zM881.152 569.515l-96-96c-30.24-30.208-70.432-46.848-113.152-46.848-20.544 0-40.448 3.904-58.88 10.624l136.128 136.128-90.496 90.496-136.128-136.128c-6.72 18.432-10.624 38.336-10.624 58.88 0 42.72 16.64 82.912 46.848 113.152l96 96c30.24 30.208 70.432 46.848 113.152 46.848s82.912-16.64 113.152-46.848c30.208-30.24 46.848-70.432 46.848-113.152s-16.64-82.912-46.848-113.152z" />
<glyph unicode="&#xe94d;" glyph-name="location" d="M783.488 794.187c-69.472 69.504-165.472 112.48-271.488 112.48-106.048 0-202.048-42.976-271.488-112.48-69.504-69.504-112.512-165.472-112.512-271.52 0-112.256 43.008-213.92 112.512-287.488l271.488-288.512 271.488 288.512c69.504 73.568 112.512 175.232 112.512 287.488 0 106.048-43.008 202.016-112.512 271.52zM736.896 279.051l-224.896-238.976-224.992 239.072c-61.248 64.864-95.008 151.328-95.008 243.52 0 85.472 33.28 165.824 93.76 226.272 60.416 60.448 140.768 93.728 226.24 93.728s165.824-33.28 226.24-93.76c60.448-60.416 93.76-140.768 93.76-226.24 0-92.192-33.76-178.656-95.104-243.616zM640 522.667c0-70.692-57.308-128-128-128s-128 57.308-128 128c0 70.692 57.308 128 128 128s128-57.308 128-128z" />
<glyph unicode="&#xe94e;" glyph-name="lock-secure" d="M464 247.915l-73.376 73.376-45.248-45.248 118.624-118.624 214.624 214.624-45.248 45.248zM768 539.755v110.912c0 141.376-114.592 256-256 256s-256-114.624-256-256v-110.944c-59.36-63.008-96-147.68-96-241.056 0-194.368 157.632-352 352-352 194.432 0 352 157.632 352 352 0 93.408-36.64 178.048-96 241.088zM320 650.667c0 105.888 86.112 192 192 192s192-86.112 192-192v-57.216c-55.264 36.064-121.12 57.216-192 57.216s-136.736-21.152-192-57.216v57.216zM512 10.667c-159.072 0-288 128.928-288 288s128.928 288 288 288 288-128.928 288-288-128.928-288-288-288z" />
<glyph unicode="&#xe94f;" glyph-name="unlock" d="M617.376 449.291l-105.376-105.376-105.376 105.376-45.248-45.248 105.376-105.376-105.376-105.376 45.248-45.248 105.376 105.376 105.376-105.376 45.248 45.248-105.376 105.376 105.376 105.376zM512 650.667c-70.88 0-136.736-21.152-192-57.216v57.216c0 105.888 86.112 192 192 192 52.928 0 100.928-21.536 135.712-56.288l45.312 45.312c-46.336 46.336-110.336 74.976-181.024 74.976-141.408 0-256-114.624-256-256v-110.944c-59.36-63.008-96-147.68-96-241.056 0-194.368 157.632-352 352-352 194.432 0 352 157.632 352 352s-157.568 352-352 352zM512 10.667c-159.072 0-288 128.928-288 288s128.928 288 288 288c159.072 0 288-128.928 288-288s-128.928-288-288-288z" />
<glyph unicode="&#xe950;" glyph-name="log" d="M192 10.667h640v-64h-640v64zM192 906.667v-832h640v832h-640zM768 138.667h-512v576h512v-576zM320 458.667h384v-32h-384v32zM320 586.667h384v-32h-384v32zM320 330.667h384v-32h-384v32z" />
<glyph unicode="&#xe951;" glyph-name="menuoverflow" d="M224 426.667c0-53.019-42.981-96-96-96s-96 42.981-96 96c0 53.019 42.981 96 96 96s96-42.981 96-96zM608 426.667c0-53.019-42.981-96-96-96s-96 42.981-96 96c0 53.019 42.981 96 96 96s96-42.981 96-96zM992 426.667c0-53.019-42.981-96-96-96s-96 42.981-96 96c0 53.019 42.981 96 96 96s96-42.981 96-96z" />
<glyph unicode="&#xe952;" glyph-name="migrate" d="M790.624 417.291l-45.248-45.248 105.376-105.376h-178.752v384l-256 256h-384v-960h640v256h178.752l-105.376-105.376 45.248-45.248 182.624 182.624-182.624 182.624zM608 10.667h-512v832h288v-224h224v-352h-224v-64h224v-192z" />
<glyph unicode="&#xe953;" glyph-name="monitoring" d="M32 810.667v-768h960v768h-960zM928 106.667h-832v512h832v-512zM512 170.667c143.488 0 252.8 77.344 320 192-67.2 114.656-176.512 192-320 192s-252.8-77.344-320-192c67.2-114.656 176.512-192 320-192zM512 522.667c116.064 0 215.68-56.64 282.432-160-66.752-103.36-166.368-160-282.432-160s-215.68 56.64-282.432 160c66.752 103.36 166.368 160 282.432 160zM512 250.667c61.888 0 112 50.112 112 112s-50.112 112-112 112c-61.824 0-112-50.112-112-112s50.176-112 112-112zM512 400.011c20.672 0 37.312-16.704 37.312-37.344s-16.64-37.344-37.312-37.344-37.312 16.704-37.312 37.344 16.64 37.344 37.312 37.344z" />
<glyph unicode="&#xe954;" glyph-name="move" d="M384 394.667v64h-210.752l73.376 73.376-45.248 45.248-150.624-150.624 150.624-150.624 45.248 45.248-73.376 73.376zM822.624 577.291l-45.248-45.248 73.376-73.376h-210.752v-64h210.752l-73.376-73.376 45.248-45.248 150.624 150.624zM544 87.915v210.752h-64v-210.752l-73.376 73.376-45.248-45.248 150.624-150.624 150.624 150.624-45.248 45.248zM480 765.419v-210.752h64v210.752l73.376-73.376 45.248 45.248-150.624 150.624-150.624-150.624 45.248-45.248z" />
<glyph unicode="&#xe955;" glyph-name="overview" d="M768 650.667c-60.992 0-116.224-24.448-156.64-64h-44.256c-11.104 19.040-31.488 32-55.136 32s-44.032-12.96-55.136-32h-44.256c-40.352 39.552-95.584 64-156.576 64-123.744 0-224-100.32-224-224s100.256-224 224-224 224 100.32 224 224h64c0-123.68 100.256-224 224-224s224 100.32 224 224-100.256 224-224 224zM256 266.667c-88.224 0-160 71.776-160 160s71.776 160 160 160 160-71.776 160-160-71.776-160-160-160zM768 266.667c-88.224 0-160 71.776-160 160s71.776 160 160 160 160-71.776 160-160-71.776-160-160-160z" />
<glyph unicode="&#xe956;" glyph-name="paste" d="M672 714.667v192h-512v-768h192v-192h512v768h-192zM800 10.667h-384v640h384v-640zM480 522.667h256v-32h-256v32zM480 458.667h256v-32h-256v32zM480 394.667h256v-32h-256v32zM480 330.667h128v-32h-128v32z" />
<glyph unicode="&#xe957;" glyph-name="pause" d="M512 874.667c-247.392 0-448-200.608-448-448s200.608-448 448-448 448 200.608 448 448-200.608 448-448 448zM512 42.667c-211.744 0-384 172.256-384 384s172.256 384 384 384 384-172.256 384-384-172.256-384-384-384zM352 586.667h128v-320h-128v320zM544 586.667h128v-320h-128v320z" />
<glyph unicode="&#xe958;" glyph-name="payment-creditcard" d="M32 746.667v-640h960v640h-960zM928 682.667v-64h-832v64h832zM96 170.667v352h832v-352h-832zM160 266.667h128v-32h-128v32zM320 266.667h128v-32h-128v32z" />
<glyph unicode="&#xe959;" glyph-name="person" d="M512 650.667c70.688 0 128 57.312 128 128s-57.312 128-128 128-128-57.312-128-128 57.312-128 128-128zM512 842.667c35.296 0 64-28.704 64-64s-28.704-64-64-64-64 28.704-64 64 28.736 64 64 64zM608 586.667h-192c-35.328 0-64-28.672-64-64v-256l64-64v-224c0-17.664 14.304-32 32-32h128c17.696 0 32 14.336 32 32v224l64 64v256c0 35.328-28.672 64-64 64z" />
<glyph unicode="&#xe95a;" glyph-name="picturefile" d="M96 842.667v-832h832v832h-832zM160 778.667h704v-576h-704v576zM608 394.667l-224 224-160-160v-192h576v128l-96 96zM800 650.667c0-35.346-28.654-64-64-64s-64 28.654-64 64c0 35.346 28.654 64 64 64s64-28.654 64-64z" />
<glyph unicode="&#xe95b;" glyph-name="piechart" d="M512 874.667v-448h-448c0-247.392 200.608-448 448-448s448 200.608 448 448-200.608 448-448 448zM576 805.323c181.376-30.56 320-188.704 320-378.656h-320v378.656zM512 42.667c-189.952 0-348.096 138.624-378.656 320h756.864c-30.592-181.312-188.32-320-378.208-320zM448 869.579c-196.064-28.128-350.784-182.848-378.912-378.912h378.912v378.912z" />
<glyph unicode="&#xe95c;" glyph-name="play" d="M512 874.667c-247.392 0-448-200.608-448-448s200.608-448 448-448 448 200.608 448 448-200.608 448-448 448zM512 42.667c-211.744 0-384 172.256-384 384s172.256 384 384 384 384-172.256 384-384-172.256-384-384-384zM352 234.667l384 192-384 192z" />
<glyph unicode="&#xe95d;" glyph-name="power-start" d="M576 708.907v197.76h-128v-197.76c-181.568-30.528-320-188-320-378.24 0-212.096 171.872-384 384-384s384 171.904 384 384c0 190.24-138.432 347.712-320 378.24zM512 10.667c-176.448 0-320 143.552-320 320 0 154.528 110.112 283.808 256 313.536v-313.536h128v313.536c145.888-29.728 256-159.008 256-313.536 0-176.448-143.552-320-320-320z" />
<glyph unicode="&#xe95e;" glyph-name="presentationfile" d="M32 810.667v-768h960v768h-960zM928 106.667h-832v512h832v-512zM512 138.667c123.68 0 224 100.32 224 224s-100.32 224-224 224v-224h-224c0-123.68 100.32-224 224-224zM512 330.667h32v221.312c90.688-15.264 160-94.336 160-189.312 0-105.888-86.112-192-192-192-94.976 0-174.048 69.312-189.344 160h189.344zM480 584.107c-98.048-14.048-175.392-91.392-189.44-189.44h189.44v189.44z" />
<glyph unicode="&#xe95f;" glyph-name="print" d="M832 746.667v160h-640v-160h-128v-384h128v-160l256-256h384v416h128v384h-128zM256 842.667h512v-96h-512v96zM480 10.667v224h-224v256h512v-480h-288z" />
<glyph unicode="&#xe960;" glyph-name="project-planning" d="M800 906.667l-768-768 192-192 768 768-192 192zM274.752 87.915l-101.504 101.504 84.672 84.704 50.752-50.752 22.624 22.624-50.72 50.752 41.376 41.376 50.752-50.752 22.624 22.624-50.752 50.752 41.376 41.376 50.752-50.752 22.624 22.624-50.752 50.752 41.376 41.376 50.752-50.752 22.624 22.624-50.752 50.752 41.376 41.376 50.752-50.752 22.624 22.624-50.752 50.752 41.376 41.376 50.752-50.752 22.624 22.624-50.752 50.752 199.424 199.392 101.504-101.472-626.752-626.752zM832 714.667c0-17.673-14.327-32-32-32s-32 14.327-32 32c0 17.673 14.327 32 32 32s32-14.327 32-32z" />
<glyph unicode="&#xe961;" glyph-name="radio" d="M512-21.333c-247.039 0-448 200.961-448 448s200.961 448 448 448 448-200.961 448-448-200.961-448-448-448zM512 810.667c-211.744 0-384-172.256-384-384s172.256-384 384-384 384 172.256 384 384-172.256 384-384 384z" />
<glyph unicode="&#xe962;" glyph-name="radio_fill" d="M512 872.684c-245.92 0-446.017-200.095-446.017-446.017 0-245.952 200.064-446.017 446.017-446.017s446.017 200.064 446.017 446.017c0 245.92-200.064 446.017-446.017 446.017zM512 266.666c-88.224 0-160.001 71.775-160.001 160.001s71.775 159.999 160.001 159.999 160.001-71.775 160.001-159.999-71.777-160.001-160.001-160.001z" />
<glyph unicode="&#xe963;" glyph-name="radio_selected" d="M512 872.684c-245.92 0-446.017-200.095-446.017-446.017 0-245.952 200.064-446.017 446.017-446.017s446.017 200.064 446.017 446.017c0 245.92-200.064 446.017-446.017 446.017zM512 44.65c-210.656 0-382.017 171.392-382.017 382.017 0 210.656 171.359 382.017 382.017 382.017 210.625 0 382.017-171.359 382.017-382.017 0-210.625-171.392-382.017-382.017-382.017zM512 586.666c-88.224 0-160.001-71.775-160.001-159.999s71.775-160.001 160.001-160.001 160.001 71.775 160.001 160.001-71.777 159.999-160.001 159.999z" />
<glyph unicode="&#xe964;" glyph-name="rating-star" d="M992 522.667l-352 32-128 352-128-352-352-32 288-224-96-352 288 224 288-224-96 352 288 224zM551.296 221.195l-39.296 30.56-175.744-136.672 56.704 207.936-193.664 150.624 230.976 20.992 13.888 38.176 67.84 186.592 81.76-224.768 230.976-20.992-193.696-150.656 56.704-207.936-136.448 106.144z" />
<glyph unicode="&#xe965;" glyph-name="recommended" d="M464 503.915l-73.376 73.376-45.248-45.248 118.624-118.624 214.624 214.624-45.248 45.248zM864 554.667c0 194.368-157.568 352-352 352-194.368 0-352-157.632-352-352 0-134.72 75.808-251.68 187.008-310.848l-27.008-297.152 192 128 192-128-27.008 297.152c111.232 59.168 187.008 176.128 187.008 310.848zM512 266.667c-159.072 0-288 128.928-288 288s128.928 288 288 288 288-128.928 288-288-128.928-288-288-288z" />
<glyph unicode="&#xe966;" glyph-name="refresh" d="M544 10.667c-176.448 0-320 143.552-320 320s143.552 320 320 320h210.752l-137.376-137.376 45.248-45.248 214.624 214.624-214.624 214.624-45.248-45.248 137.376-137.376h-210.752c-211.744 0-384-172.256-384-384s172.256-384 384-384c102.56 0 198.976 39.936 271.52 112.48l-45.248 45.248c-60.448-60.448-140.8-93.728-226.272-93.728z" />
<glyph unicode="&#xe967;" glyph-name="relationship" d="M768 650.667c70.688 0 128 57.312 128 128s-57.312 128-128 128-128-57.312-128-128 57.312-128 128-128zM768 842.667c35.296 0 64-28.704 64-64 0-35.264-28.704-64-64-64-35.328 0-64 28.736-64 64 0 35.296 28.672 64 64 64zM864 586.667h-192l-160-160-160 160h-192c-35.36 0-64-28.672-64-64v-256l64-64v-224c0-17.696 14.304-32 32-32h128c17.696 0 32 14.304 32 32v448l160-160 160 160v-448c0-17.696 14.304-32 32-32h128c17.696 0 32 14.304 32 32v224l64 64v256c0 35.328-28.672 64-64 64zM256 650.667c70.688 0 128 57.312 128 128s-57.312 128-128 128-128-57.312-128-128 57.312-128 128-128zM256 842.667c35.296 0 64-28.704 64-64 0-35.264-28.704-64-64-64-35.328 0-64 28.736-64 64 0 35.296 28.672 64 64 64z" />
<glyph unicode="&#xe968;" glyph-name="remove-trash" d="M384 874.667h256v-64h-256v64zM192 778.667v-160h32v-640h576v640h32v160h-640zM736 42.667h-448v512h448v-512zM352 490.667h32v-384h-32v384zM448 490.667h32v-384h-32v384zM544 490.667h32v-384h-32v384zM640 490.667h32v-384h-32v384z" />
<glyph unicode="&#xe969;" glyph-name="removeAll" d="M384 874.667h256v-64h-256v64zM192 778.667v-160h32v-640h576v640h32v160h-640zM736 42.667h-448v512h448v-512z" />
<glyph unicode="&#xe96a;" glyph-name="remove-delete" d="M288 458.667h448v-64h-448v64zM512 874.667c-247.392 0-448-200.608-448-448s200.608-448 448-448 448 200.608 448 448-200.608 448-448 448zM512 42.667c-211.744 0-384 172.256-384 384s172.256 384 384 384 384-172.256 384-384-172.256-384-384-384z" />
<glyph unicode="&#xe96b;" glyph-name="report" d="M320 714.667h160v-672h-160v672zM544 394.667h160v-32h-160v32zM544 458.667h160v-32h-160v32zM544 330.667h160v-32h-160v32zM544 266.667h160v-32h-160v32zM544 202.667h160v-32h-160v32zM544 138.667h160v-32h-160v32zM544 74.667h160v-32h-160v32zM192 906.667v-960h640v960h-640zM768 10.667h-512v768h512v-768z" />
<glyph unicode="&#xe96c;" glyph-name="repository-archive" d="M928 618.667v64h-64v64h-704v-64h-64v-64h-64v-512h960v512h-64zM192 714.667h640v-32h-640v32zM928 170.667h-832v384h832v-384zM608 330.667h32v64h-32v-32h-192v32h-32v-64h32z" />
<glyph unicode="&#xe96d;" glyph-name="reset" d="M608 778.667c-211.744 0-384-172.256-384-384v-210.752l-137.376 137.376-45.248-45.248 214.624-214.624 214.624 214.624-45.248 45.248-137.376-137.376v210.752c0 176.448 143.552 320 320 320s320-143.552 320-320c0-85.472-33.28-165.824-93.728-226.272l45.248-45.248c72.544 72.544 112.48 168.96 112.48 271.52 0 211.744-172.256 384-384 384z" />
<glyph unicode="&#xe96e;" glyph-name="restore" d="M608 810.667c-211.744 0-384-172.256-384-384v-274.752l-137.376 137.376-45.248-45.248 214.624-214.624 214.624 214.624-45.248 45.248-137.376-137.376v274.752c0 176.448 143.552 320 320 320s320-143.552 320-320-143.552-320-320-320v-64c211.744 0 384 172.256 384 384s-172.256 384-384 384zM649.376 340.043l45.248 45.248-52.704 52.704 169.408 169.344-22.656 22.656-169.344-169.376-84.704 84.672-45.248-45.248 84.704-84.704-41.408-41.344 22.656-22.656 41.344 41.408z" />
<glyph unicode="&#xe96f;" glyph-name="retrieve" d="M384 202.667h256v-32h-256v32zM384 138.667h256v-32h-256v32zM768 10.667v384h-512v-384h-160v-64h832v64h-160zM320 10.667v320h384v-320h-384zM480 765.419v-306.752h64v306.752l105.376-105.376 45.248 45.248-182.624 182.624-182.624-182.624 45.248-45.248z" />
<glyph unicode="&#xe970;" glyph-name="role" d="M576 778.667v128h-128v-128h-256v-832h640v832h-256zM512 874.667c17.664 0 32-14.336 32-32s-14.336-32-32-32-32 14.336-32 32 14.336 32 32 32zM768 10.667h-512v704h192v-64h128v64h192v-704zM512 586.667c-88.384 0-160-71.616-160-160s71.616-160 160-160 160 71.616 160 160-71.616 160-160 160zM512 330.667c-52.928 0-96 43.072-96 96s43.072 96 96 96 96-43.072 96-96-43.072-96-96-96zM384 202.667c-35.328 0-64-28.672-64-64v-64h384v64c0 35.328-28.672 64-64 64h-256z" />
<glyph unicode="&#xe971;" glyph-name="run" d="M352 586.667c-88.352 0-160-71.648-160-160s71.648-160 160-160c88.352 0 160 71.648 160 160s-71.648 160-160 160zM352 362.667c-35.36 0-64 28.672-64 64s28.64 64 64 64c35.328 0 64-28.672 64-64s-28.672-64-64-64zM963.872 718.539c-17.376 17.344-41.376 28.128-67.872 28.128h-544c-88.352 0-168.352-35.808-226.272-93.728-57.92-57.888-93.728-137.888-93.728-226.272s35.808-168.384 93.728-226.272c57.92-57.92 137.92-93.728 226.272-93.728s168.224 35.936 226.272 93.728c0 0 0 0 0 0 0.064 0.064 0.096 0.096 0.128 0.16 96.352 95.936 385.44 382.24 385.44 382.24 17.44 17.344 28.16 41.344 28.16 67.872s-10.72 50.528-28.128 67.872zM533.152 245.803l-0.032-0.032c-48.64-48.448-112.96-75.104-181.12-75.104-68.384 0-132.672 26.624-181.024 74.976s-74.976 112.64-74.976 181.024 26.624 132.672 74.976 181.024c48.352 48.352 112.64 74.976 181.024 74.976 65.568 0 131.104-25.056 181.024-74.976 99.744-99.776 99.776-262.080 0.128-361.888zM668.224 379.915c14.208 96.704-15.52 198.592-89.952 273.056-11.008 10.976-22.752 20.64-34.848 29.696h262.4c-11.968-33.792-4.736-72.832 22.304-99.872 7.872-7.872 16.896-13.696 26.368-18.272-49.76-49.248-120.928-119.808-186.272-184.608zM896 618.667c-17.664 0-32 14.336-32 32s14.336 32 32 32c17.664 0 32-14.336 32-32s-14.336-32-32-32z" />
<glyph unicode="&#xe972;" glyph-name="save" d="M96 842.667v-832h704l128 128v704h-832zM864 165.195l-90.496-90.528h-69.504v64h-384v-64h-160v704h704v-613.472zM512 234.667c106.016 0 192 85.984 192 192s-85.984 192-192 192-192-85.952-192-192 85.952-192 192-192zM512 490.667c35.328 0 64-28.672 64-64s-28.672-64-64-64-64 28.672-64 64 28.672 64 64 64z" />
<glyph unicode="&#xe973;" glyph-name="search" d="M384 906.667c-194.368 0-352-157.632-352-352s157.632-352 352-352 352 157.632 352 352c0 194.368-157.632 352-352 352zM384 266.667c-158.784 0-288 129.216-288 288s129.216 288 288 288 288-129.216 288-288-129.216-288-288-288zM671.99 170.679l96.007 96.007 223.987-223.987-96.007-96.007-223.987 223.987zM704 266.667c0-17.673-14.327-32-32-32s-32 14.327-32 32c0 17.673 14.327 32 32 32s32-14.327 32-32z" />
<glyph unicode="&#xe974;" glyph-name="search_list" d="M967.923 122.46l-147.416 192.484c52.292 49.884 85.147 119.722 85.147 197.472 0 150.684-122.99 273.33-274.018 273.33-151.2 0-274.018-122.646-274.018-273.33s122.99-273.33 274.018-273.33c48.68 0 94.264 12.901 133.999 35.091l147.932-193.172c6.709-8.773 16.857-13.417 27.35-13.417 7.225 0 14.621 2.236 20.642 7.053 14.965 11.525 17.889 32.855 6.365 47.82v0zM421.091 512.416c0 115.765 94.436 209.857 210.545 209.857s210.545-94.092 210.545-209.857-94.436-209.857-210.545-209.857-210.545 94.092-210.545 209.857v0zM288.468 649.855h-205.213c-18.922 0-34.231 15.309-34.231 34.059s15.309 34.059 34.231 34.059h205.213c18.922 0 34.231-15.309 34.231-34.059s-15.309-34.059-34.231-34.059v0zM280.211 312.536h-196.956c-18.922 0-34.231 15.309-34.231 34.059s15.309 34.059 34.231 34.059h196.956c18.922 0 34.231-15.309 34.231-34.059s-15.309-34.059-34.231-34.059v0zM239.788 481.626h-156.533c-18.922 0-34.231 15.309-34.231 34.231s15.309 34.231 34.231 34.231h156.533c18.922 0 34.231-15.309 34.231-34.231-0.172-18.922-15.481-34.231-34.231-34.231v0zM460.138 137.425h-376.883c-18.922 0-34.231 15.309-34.231 34.231s15.309 34.231 34.231 34.231h376.883c18.922 0 34.231-15.309 34.231-34.231s-15.309-34.231-34.231-34.231v0z" />
<glyph unicode="&#xe975;" glyph-name="search_list_fill" d="M288.468 649.855h-205.385c-18.922 0-34.231 15.309-34.231 34.059s15.309 34.059 34.231 34.059h205.213c18.922 0 34.231-15.309 34.231-34.059s-15.309-34.059-34.059-34.059v0zM280.039 312.708h-196.956c-18.922 0-34.231 15.309-34.231 34.059s15.309 34.059 34.231 34.059h196.956c18.922 0 34.231-15.309 34.231-34.059s-15.309-34.059-34.231-34.059v0zM239.616 481.626h-156.533c-18.922 0-34.231 15.309-34.231 34.231s15.309 34.231 34.231 34.231h156.533c18.922 0 34.231-15.309 34.231-34.231s-15.309-34.231-34.231-34.231v0zM459.966 137.597h-376.711c-18.922 0-34.231 15.309-34.231 34.231s15.309 34.059 34.231 34.059h376.711c18.922 0 34.231-15.309 34.231-34.231 0-18.75-15.309-34.059-34.231-34.059v0zM420.747 512.588c0 115.765 94.436 210.029 210.545 210.029s210.545-94.092 210.545-210.029-94.436-210.029-210.545-210.029-210.545 94.264-210.545 210.029v0 0zM967.751 122.46l-147.416 192.484c52.292 49.884 85.147 119.894 85.147 197.472 0 150.684-122.99 273.33-274.19 273.33s-274.19-122.646-274.19-273.33 122.99-273.33 274.19-273.33c48.68 0 94.264 12.901 133.999 35.091l147.932-193.172c6.709-8.773 17.029-13.589 27.178-13.589 7.225 0 14.621 2.236 20.642 7.053 15.309 11.697 18.061 33.199 6.709 47.992v0 0zM778.708 513.792c0-81.019-65.709-146.556-146.556-146.556s-146.556 65.709-146.556 146.556 65.709 146.556 146.556 146.556 146.556-65.709 146.556-146.556z" />
<glyph unicode="&#xe976;" glyph-name="select-success" d="M887.905 640.458c-12.864 12.064-33.152 11.487-45.215-1.409l-426.754-454.366-233.12 229.696c-12.607 12.416-32.864 12.287-45.281-0.32-12.416-12.576-12.256-32.864 0.353-45.248l256.48-252.671c0.096-0.096 0.224-0.127 0.32-0.224s0.127-0.224 0.224-0.32c2.016-1.92 4.448-3.009 6.784-4.288 1.153-0.673 2.143-1.663 3.36-2.143 3.776-1.472 7.775-2.24 11.744-2.24 4.192 0 8.384 0.833 12.287 2.496 1.313 0.544 2.336 1.663 3.552 2.369 2.4 1.409 4.896 2.592 6.944 4.672 0.096 0.096 0.127 0.256 0.224 0.353 0.064 0.096 0.193 0.127 0.287 0.224l449.183 478.208c12.162 12.829 11.491 33.085-1.373 45.212z" />
<glyph unicode="&#xe977;" glyph-name="settings" d="M880 426.667c0 19.68-1.984 38.816-4.96 57.664l116.96 102.336-99.36 163.136-139.488-45.568c-33.344 28.992-71.936 51.936-114.208 67.488l-30.944 134.944h-192l-30.912-134.944c-42.272-15.552-80.864-38.496-114.24-67.52l-139.488 45.6-99.36-163.136 116.96-102.368c-2.976-18.816-4.96-37.984-4.96-57.632 0-19.68 1.984-38.816 4.96-57.664l-116.96-102.336 99.392-163.136 139.456 45.568c33.344-29.024 71.968-51.968 114.24-67.52l30.912-134.912h192l30.912 134.944c42.272 15.552 80.864 38.496 114.208 67.488l139.488-45.568 99.392 163.136-116.96 102.304c2.976 18.848 4.96 38.016 4.96 57.696zM909.312 253.963l-44.992-73.856-125.824 41.088-27.36-23.808c-27.776-24.16-59.52-42.912-94.304-55.744l-32.544-12-7.744-33.792-19.552-85.184h-89.984l-19.52 85.248-7.744 33.792-32.544 12c-34.816 12.8-66.56 31.552-94.336 55.744l-27.392 23.776-125.792-41.12-44.992 73.856 102.976 90.144-5.504 34.88c-2.784 17.792-4.16 33.408-4.16 47.68s1.376 29.888 4.16 47.68l5.504 34.88-102.976 90.176 44.992 73.856 125.792-41.152 27.36 23.808c27.808 24.192 59.52 42.944 94.336 55.744l32.544 12 7.744 33.792 19.552 85.216h89.984l19.52-85.248 7.744-33.792 32.544-12c34.784-12.8 66.528-31.552 94.304-55.744l27.36-23.808 125.824 41.12 44.992-73.856-103.008-90.112 5.536-34.912c2.816-17.76 4.192-33.344 4.192-47.648s-1.376-29.92-4.192-47.68l-5.536-34.912 103.040-90.112zM512 618.667c-106.048 0-192-85.92-192-192s85.952-192 192-192c106.080 0 192 85.92 192 192s-85.92 192-192 192zM512 362.667c-35.328 0-64 28.672-64 64s28.672 64 64 64 64-28.672 64-64-28.672-64-64-64z" />
<glyph unicode="&#xe978;" glyph-name="spaces" d="M32 746.667v-640h960v640h-960zM928 170.667h-832v512h832v-512zM896 650.667h-352v-192h352v192zM864 490.667h-288v128h288v-128zM128 650.667h352v-192h-352v192zM480 394.667h-352v-192h352v192zM448 234.667h-288v128h288v-128zM896 394.667h-352v-192h352v192zM864 234.667h-288v128h288v-128z" />
<glyph unicode="&#xe979;" glyph-name="spreadsheet" d="M32 810.667v-768h960v768h-960zM928 106.667h-832v128h832v-128zM928 298.667h-832v128h832v-128zM928 490.667h-832v128h832v-128z" />
<glyph unicode="&#xe97a;" glyph-name="status_error" d="M649.376 609.291l-137.376-137.376-137.376 137.376-45.248-45.248 137.376-137.376-137.376-137.376 45.248-45.248 137.376 137.376 137.376-137.376 45.248 45.248-137.376 137.376 137.376 137.376zM751.552 15.979h-478.048l-239.040 414.016 239.040 414.048h478.048l239.008-414.048-239.008-414.016zM310.208 79.563h404.672l202.272 350.432-202.272 350.464h-404.672l-202.304-350.464 202.304-350.432z" />
<glyph unicode="&#xe97b;" glyph-name="status_info" d="M576 490.667h-192v-64h64v-192h-64v-64h256v64h-64zM576 618.667c0-35.346-28.654-64-64-64s-64 28.654-64 64c0 35.346 28.654 64 64 64s64-28.654 64-64zM512 874.667c-247.392 0-448-200.608-448-448s200.608-448 448-448 448 200.608 448 448-200.608 448-448 448zM512 42.667c-211.744 0-384 172.256-384 384s172.256 384 384 384 384-172.256 384-384-172.256-384-384-384z" />
<glyph unicode="&#xe97c;" glyph-name="status_success" d="M448 343.915l-105.376 105.376-45.248-45.248 150.624-150.624 278.624 278.624-45.248 45.248zM512 874.667c-247.392 0-448-200.608-448-448s200.608-448 448-448 448 200.608 448 448-200.608 448-448 448zM512 42.667c-211.744 0-384 172.256-384 384s172.256 384 384 384 384-172.256 384-384-172.256-384-384-384z" />
<glyph unicode="&#xe97d;" glyph-name="status_warning" d="M512 842.667l-480-832h960l-480 832zM512 714.603l369.184-639.936h-738.368l369.184 639.936zM480 490.667v-64l16-160h32l16 160v64zM544 202.667c0-17.673-14.327-32-32-32s-32 14.327-32 32c0 17.673 14.327 32 32 32s32-14.327 32-32z" />
<glyph unicode="&#xe97e;" glyph-name="stop" d="M512 874.667c-247.392 0-448-200.608-448-448s200.608-448 448-448 448 200.608 448 448-200.608 448-448 448zM512 42.667c-211.744 0-384 172.256-384 384s172.256 384 384 384 384-172.256 384-384-172.256-384-384-384zM352 586.667h320v-320h-320v320z" />
<glyph unicode="&#xe97f;" glyph-name="switch" d="M908.418 403.381c0.471-164.372-131.734-327.26-313.498-364.889-197.113-40.806-391.479 70.212-456.032 260.478-50.668 149.337-6.274 316.638 111.643 421.031 56.293 49.838 121.371 81.797 195.451 94.307 92.645 15.647 180.183-0.034 262.24-45.875 12.923-7.219 17.19-21.958 10.233-34.215-6.793-11.971-21.473-16.005-34.167-8.881-35.557 19.954-73.202 34.133-113.527 40.458-101.106 15.865-192.625-7.165-272.845-70.717-68.854-54.548-111.353-126.024-125.252-212.763-17.183-107.237 9.991-203.117 81.289-285.344 50.579-58.33 114.596-94.706 190.218-110.595 142.322-29.904 291.222 35.625 365.763 161.099 37.642 63.362 53.596 131.898 47.937 205.319-3.772 48.951-17.821 94.959-41.479 138.008-1.232 2.239-2.516 4.458-3.645 6.748-5.953 12.059-1.556 26.447 9.97 32.737 11.998 6.547 26.307 2.761 33.311-9.247 11.964-20.514 21.726-42.069 29.652-64.461 15.107-42.68 22.682-86.644 22.74-153.197zM612.195 312.331c2.185 2.014 3.546 3.185 4.813 4.451 25.105 25.088 50.173 50.214 75.315 75.264 9.26 9.226 21.613 10.885 31.706 4.519 12.199-7.694 15.206-24.351 6.424-35.802-1.137-1.481-2.444-2.85-3.768-4.175-40.168-40.189-80.333-80.384-120.538-120.535-11.37-11.353-27.679-11.22-37.475 0.16-4.205 4.888-5.939 10.633-5.926 17.002 0.020 9.213 0 18.429 0 27.645 0 104.602-0.003 209.2 0.003 313.798 0 13.285 5.332 22.173 15.636 26.228 15.756 6.202 32.597-4.796 33.758-22.071 0.126-1.871 0.048-3.751 0.048-5.629 0-91.29 0-182.579 0-273.872 0.003-1.963 0.003-3.925 0.003-6.984zM414.652 538.146c-2.195-2.082-3.536-3.304-4.82-4.584-25.108-25.095-50.255-50.149-75.281-75.322-7.264-7.308-15.735-10.192-25.624-7.397-16.797 4.745-23.241 24.958-12.554 38.758 1.143 1.478 2.481 2.816 3.806 4.144 39.936 39.95 79.91 79.865 119.794 119.866 5.854 5.871 12.459 9.318 20.927 8.837 12.145-0.693 22.193-10.554 22.951-22.726 0.116-1.871 0.082-3.755 0.082-5.629 0.003-112.637 0.010-225.273-0.034-337.913 0-3.383-0.085-6.878-0.905-10.127-3.113-12.37-14.223-19.688-27.081-18.169-11.865 1.399-21.050 11.517-21.214 23.767-0.174 13.138-0.055 26.283-0.055 39.421 0 80.039 0 160.079 0 240.121 0.007 1.86 0.007 3.734 0.007 6.953z" />
<glyph unicode="&#xe980;" glyph-name="table" d="M32 810.667v-768h960v768h-960zM608 394.667h-512v224h512v-224zM96 106.667v224h512v-224h-512zM928 106.667h-256v224h256v-224zM928 394.667h-256v224h256v-224z" />
<glyph unicode="&#xe981;" glyph-name="tag" d="M576 906.667l-544-544 416-416 544 544v416h-416zM928 517.163l-429.248-429.248-325.504 325.504 429.28 429.248h325.472v-325.504zM832 682.667c0-35.346-28.654-64-64-64s-64 28.654-64 64c0 35.346 28.654 64 64 64s64-28.654 64-64z" />
<glyph unicode="&#xe982;" glyph-name="task" d="M96 842.667v-640l192-192h640v832h-832zM864 74.667h-544v160h-160v544h704v-704zM726.624 532.043l-45.248 45.248-233.376-233.376-105.376 105.376-45.248-45.248 150.624-150.624z" />
<glyph unicode="&#xe983;" glyph-name="template" d="M576 586.667h-448v-448h448v448zM544 532.043v-338.752l-169.376 169.376 169.376 169.376zM352 385.291l-169.376 169.376h338.752l-169.376-169.376zM329.376 362.667l-169.376-169.376v338.752l169.376-169.376zM352 340.043l169.376-169.376h-338.752l169.376 169.376zM640 586.667h256v-448h-256v448zM32 810.667v-768h960v768h-960zM928 106.667h-832v512h832v-512z" />
<glyph unicode="&#xe984;" glyph-name="tile" d="M608 842.667h320v-320h-320v320zM544 842.667h-448v-832h832v448h-384v384zM480 74.667h-320v320h320v-320zM864 394.667v-320h-320v320h320zM160 458.667v320h320v-320h-320z" />
<glyph unicode="&#xe985;" glyph-name="tools" d="M32 106.667l128-128 544 544-128 128-544-544zM160 69.163l-37.504 37.504 453.504 453.504 37.504-37.504-453.504-453.504zM960 586.667h-64v64l-224 224h-256l352-352h64v-64l32-32 128 128z" />
<glyph unicode="&#xe986;" glyph-name="user" d="M512 266.667c176.736 0 320 143.264 320 320s-143.264 320-320 320-320-143.264-320-320 143.264-320 320-320zM512 842.667c141.152 0 256-114.848 256-256s-114.848-256-256-256-256 114.848-256 256 114.848 256 256 256zM768 202.667h-512c-70.688 0-128-57.312-128-128v-128h768v128c0 70.688-57.312 128-128 128z" />
<glyph unicode="&#xe987;" glyph-name="view" d="M512 586.667c-106.048 0-192-85.92-192-192s85.952-192 192-192c106.080 0 192 85.92 192 192s-85.92 192-192 192zM512 330.667c-35.392 0-64 28.64-64 64s28.608 64 64 64 64-28.64 64-64-28.64-64-64-64zM512 682.667c-215.392 0-379.296-116-480-288 100.704-172 264.608-288 480-288s379.328 116 480 288c-100.672 172-264.64 288-480 288zM512 170.667c-165.248 0-307.584 79.2-404.544 224 96.928 144.8 239.264 224 404.544 224s307.584-79.2 404.544-224c-96.96-144.8-239.296-224-404.544-224z" />
<glyph unicode="&#xe988;" glyph-name="wikis" d="M512 874.667c-247.424 0-448-200.576-448-448s200.576-448 448-448 448 200.576 448 448-200.576 448-448 448zM669.696 291.595l-135.072 135.072 259.552 259.552c0.064-0.064 0.128-0.128 0.192-0.224 17.536-148.576-26.944-289.824-124.672-394.4zM354.304 561.739l135.072-135.072-259.552-259.552c-0.064 0.064-0.128 0.128-0.192 0.224-17.536 148.576 26.944 289.824 124.672 394.4zM771.552 708.843l-259.552-259.552-135.2 135.2c88.8 82.944 206.176 128.864 332.992 128.864 20.32 0 40.736-1.6 61.12-3.936 0.224-0.192 0.416-0.384 0.64-0.576zM252.448 144.491l259.552 259.552 135.2-135.2c-88.8-82.944-206.176-128.864-332.96-128.864-20.32 0-40.768 1.6-61.152 3.936-0.224 0.192-0.416 0.384-0.64 0.576zM727.136 744.587c-5.792 0.192-11.552 0.768-17.312 0.768-135.328 0-260.736-49.28-355.616-138.24l-101.76 101.76c68.416 62.976 159.424 101.792 259.552 101.792 79.648 0 153.696-24.416 215.136-66.080zM229.824 686.219l101.568-101.568c-92.64-98.88-141.472-233.152-137.472-372.864-41.6 61.376-65.92 135.328-65.92 214.88 0 100.128 38.816 191.136 101.824 259.552zM296.864 108.747c5.792-0.192 11.584-0.768 17.344-0.768 135.328 0 260.736 49.248 355.584 138.24l101.76-101.76c-68.416-62.976-159.424-101.792-259.552-101.792-79.648 0-153.696 24.416-215.136 66.080zM794.176 167.115l-101.568 101.568c92.64 98.88 141.472 233.152 137.472 372.864 41.6-61.376 65.92-135.328 65.92-214.88 0-100.128-38.816-191.136-101.824-259.552z" />
<glyph unicode="&#xe989;" glyph-name="zoomin" d="M384 906.667c-194.368 0-352-157.632-352-352s157.632-352 352-352c194.368 0 352 157.632 352 352s-157.632 352-352 352zM384 266.667c-158.784 0-288 129.216-288 288s129.216 288 288 288c158.784 0 288-129.216 288-288s-129.216-288-288-288zM671.99 170.679l96.007 96.007 223.987-223.987-96.007-96.007-223.987 223.987zM704 266.667c0-17.673-14.327-32-32-32s-32 14.327-32 32c0 17.673 14.327 32 32 32s32-14.327 32-32zM416 746.667h-64v-160h-160v-64h160v-160h64v160h160v64h-160z" />
<glyph unicode="&#xe98a;" glyph-name="zoomout" d="M384 906.667c-194.368 0-352-157.632-352-352s157.632-352 352-352c194.368 0 352 157.632 352 352s-157.632 352-352 352zM384 266.667c-158.816 0-288 129.216-288 288s129.184 288 288 288c158.816 0 288-129.216 288-288s-129.184-288-288-288zM671.99 170.679l96.007 96.007 223.987-223.987-96.007-96.007-223.987 223.987zM704 266.667c0-17.673-14.327-32-32-32s-32 14.327-32 32c0 17.673 14.327 32 32 32s32-14.327 32-32zM192 586.667h384v-64h-384v64z" />
<glyph unicode="&#xe98b;" glyph-name="add-new_fill" d="M511.968 874.731c-247.392 0-448-200.576-448-448 0-247.456 200.608-448 448-448 247.36 0 448 200.576 448 448s-200.64 448-448 448zM715.584 385.995h-162.912v-162.912h-81.44v162.912h-162.912v81.472h162.912v162.88h81.44v-162.912h162.912v-81.44z" />
<glyph unicode="&#xe98c;" glyph-name="remove-delete_fill" d="M511.968 874.699c-247.392 0-448-200.576-448-448 0-247.456 200.608-448 448-448 247.424 0 448 200.576 448 448 0 247.456-200.608 448-448 448zM715.616 385.995h-407.328v81.44h407.328v-81.44z" />
<glyph unicode="&#xe98d;" glyph-name="section_open" d="M544 650.667h-64v-192h-192v-64h192v-192h64v192h192v64h-192z" />
<glyph unicode="&#xe98e;" glyph-name="section_close" d="M288 458.667h447.488v-63.488h-447.488v63.488z" />
<glyph unicode="&#xe98f;" glyph-name="edit_fill" d="M991.99 714.697l-96.007-96.007-191.992 191.992 96.007 96.007 191.992-191.992zM160 266.667l192-192 480 480-192 192-480-480zM32-53.333l160 64-96 96z" />
<glyph unicode="&#xe990;" glyph-name="layout_newWindow" d="M416 682.667v96h-384v-704h960v608h-576zM928 138.667h-832v448h832v-448zM625.28 238.603l201.376 201.408v-146.784h64v256.032h-256v-64h146.752l-201.376-201.408 45.248-45.248z" />
<glyph unicode="&#xe991;" glyph-name="rating-star_fill" d="M992 522.667l-352 32-128 352-128-352-352-32 288-224-96-352 288 224 288-224-96 352 288 224z" />
<glyph unicode="&#xe992;" glyph-name="save_fill" d="M95.968 842.699v-831.968h226.912v75.648h378.208v-75.648h75.616l151.296 151.296v680.672h-832.032zM511.968 237.675c-104.448 0-189.088 84.64-189.088 189.056 0 104.448 84.672 189.088 189.088 189.088 104.448 0 189.12-84.64 189.12-189.088-0.032-104.448-84.672-189.056-189.12-189.056zM587.584 426.731c0-41.762-33.854-75.616-75.616-75.616s-75.616 33.854-75.616 75.616c0 41.762 33.854 75.616 75.616 75.616s75.616-33.854 75.616-75.616z" />
<glyph unicode="&#xe993;" glyph-name="status_critical_fill" d="M754.464 18.667h-481.12l-240.576 416.704 240.576 416.672h481.12l240.608-416.672-240.608-416.704zM649.376 609.291l-137.376-137.376-137.376 137.376-45.248-45.248 137.376-137.376-137.376-137.376 45.248-45.248 137.376 137.376 137.376-137.376 45.248 45.248-137.376 137.376 137.376 137.376-45.248 45.248z" />
<glyph unicode="&#xe994;" glyph-name="layout_full" d="M32 810.667v-768h960v768h-960zM928 106.667h-410.848l85.376 85.376-26.432 26.368-42.816-42.816v123.008h-37.376v-123.008l-42.816 42.816-26.432-26.368 85.376-85.376h-416.032v512h416.704l-86.048-86.048 26.432-26.432 42.816 42.848v-123.040h37.376v123.040l42.816-42.848 26.432 26.432-86.048 86.048h411.52v-512zM359.68 412.811l-26.4 26.432-87.936-87.904 87.936-87.968 26.4 26.464-42.848 42.816h123.040v37.344h-123.040zM589.312 369.995v-37.344h123.040l-42.848-42.816 26.4-26.464 87.936 87.968-87.936 87.904-26.4-26.432 42.848-42.816z" />
<glyph unicode="&#xe995;" glyph-name="status_info_fill" d="M512 874.667c-247.392 0-448-200.608-448-448 0-247.36 200.608-448 448-448 247.36 0 448 200.64 448 448 0 247.392-200.64 448-448 448zM512 682.667c35.328 0 64-28.672 64-64s-28.672-64-64-64-64 28.672-64 64 28.672 64 64 64zM640 170.667h-256v64h64v192h-64v64h192v-256h64v-64z" />
<glyph unicode="&#xe996;" glyph-name="arrow_up_fill" d="M368.672 447.467l-0.16-431.008h305.824l0.192 431.008 228.768 0.672-381.856 381.856-381.824-381.856z" />
<glyph unicode="&#xe997;" glyph-name="arrow_down_fill" d="M674.208 399.019l0.192 431.008h-305.824l-0.192-431.008-228.768-0.672 381.856-381.824 381.824 381.824z" />
<glyph unicode="&#xe998;" glyph-name="status_success_fill" d="M512 874.667c-247.392 0-448-200.608-448-448 0-247.36 200.608-448 448-448 247.36 0 448 200.64 448 448 0 247.392-200.64 448-448 448zM448 253.419l-150.624 150.624 45.248 45.248 105.376-105.376 233.376 233.376 45.248-45.248-278.624-278.624z" />
<glyph unicode="&#xe999;" glyph-name="arrow_back_fill" d="M488.544 805.035l-381.824-381.792 381.824-381.856 0.672 228.736 431.040 0.192v305.856l-431.040-0.192z" />
<glyph unicode="&#xe99a;" glyph-name="status_warning_fill" d="M512 842.667l-480-832h960l-480 832zM511.488 215.947c21.344 0 38.656-17.28 38.656-38.656 0-21.344-17.28-38.624-38.656-38.624-21.344 0-38.624 17.28-38.624 38.624 0 21.376 17.28 38.656 38.624 38.656zM510.688 583.147c12.928 0.864 37.056-4.32 39.68-37.088 2.496-31.52-1.76-64.672-5.184-107.776-8.064-101.216-9.376-166.4-33.632-166.4s-18.816 25.184-31.872 125.888c-6.048 46.56-9.696 112.736-10.368 144.832-0.864 39.712 27.584 39.616 41.376 40.544z" />
<glyph unicode="&#xe99b;" glyph-name="arrow_next_fill" d="M545.728 575.979l-431.040 0.192v-305.856l431.040-0.192 0.64-228.736 381.856 381.856-381.856 381.792z" />
<glyph unicode="&#xe99c;" glyph-name="check_mix" d="M832 10.667h-640c-52.922 0-96 43.063-96 96v640c0 52.922 43.078 96 96 96h640c52.938 0 96-43.078 96-96v-640c0-52.938-43.062-96-96-96zM192 778.667c-17.625 0-32-14.375-32-32v-640c0-17.688 14.375-32 32-32h640c17.688 0 32 14.313 32 32v640c0 17.625-14.344 32-32 32h-640zM282.656 661.323h469.344v-469.344h-469.344v469.344z" />
<glyph unicode="&#xe99d;" glyph-name="play_fill" d="M194.464 109.227l634.976 317.472-634.976 317.504z" />
<glyph unicode="&#xe99e;" glyph-name="pause_fill" d="M239.872 698.795h217.696v-544.256h-217.696v544.256zM566.432 698.795h217.696v-544.256h-217.696v544.256z" />
<glyph unicode="&#xe99f;" glyph-name="hamburger" d="M189.952 744.203h644.032v-130.592h-644.032v130.592zM189.952 492.011h644.032v-130.592h-644.032v130.592zM189.952 239.851h644.032v-130.624h-644.032v130.624z" />
<glyph unicode="&#xe9a0;" glyph-name="product_name" horiz-adv-x="10027" d="M150.997 174.080v593.451h52.949v-593.451h-52.949zM348.885 174.080v593.451h202.624c131.669 0 183.893-60.16 183.893-149.205 0-82.432-44.416-119.509-89.6-127.744v-1.664c77.141-12.373 115.328-69.248 115.328-147.541 0-123.648-76.373-167.339-183.125-167.339h-229.12zM401.877 505.43h134.016c110.677 0 146.517 41.216 146.517 112.896 0 74.197-42.069 101.376-158.208 101.376h-122.325v-214.272zM401.877 221.867h134.827c116.907 0 171.435 16.512 171.435 119.552 0 98.048-65.451 116.224-165.205 116.224h-141.056v-235.776zM866.261 174.080v593.451h81.024l183.936-523.392h1.579l180.779 523.392h80.256v-593.451h-52.992v529.152h-1.536l-183.936-529.152h-49.877l-184.661 529.152h-1.579v-529.152h-52.992zM1707.349 765.782h251.477c151.040 0 264.491-96.427 264.491-290.944 0-170.624-86.528-297.557-264.491-297.557h-251.477v588.501zM1835.52 286.080h114.304c74.283 0 145.323 46.165 145.323 176.384 0 118.699-41.643 194.517-168.192 194.517h-91.435v-370.901zM2295.381 472.363c6.528 108.8 103.68 142.592 198.4 142.592 84.096 0 185.301-18.944 185.301-121.173v-221.696c0-38.741 4.096-77.483 14.677-94.805h-117.547c-4.096 13.227-7.339 27.221-8.149 41.216-36.736-38.741-89.813-52.736-142.080-52.736-80.853 0-143.701 40.363-143.701 127.744 1.621 193.707 285.739 89.813 280.832 185.472 0 49.451-34.261 57.685-75.093 57.685-44.885 0-72.661-18.133-76.715-64.299h-115.925zM2563.157 385.835c-19.584-17.323-60.416-18.176-96.341-24.747s-68.565-19.797-68.565-62.635c0-42.88 33.451-54.4 71.040-54.4 90.624 0 93.867 71.723 93.867 98.091v43.691zM2915.968 603.435h84.907v-78.293h-84.907v-210.987c0-39.595 9.771-49.451 48.981-49.451 13.056 0 25.301 0.853 35.925 3.285v-91.52c-19.584-3.285-44.885-4.139-67.755-4.139-71.851 0-133.077 15.659-133.077 101.376v251.392h-70.229v78.336h70.229v127.744h115.925v-127.744zM3051.605 472.363c6.528 108.8 103.68 142.592 198.4 142.592 84.096 0 185.301-18.944 185.301-121.173v-221.696c0-38.741 4.096-77.483 14.72-94.805h-117.589c-4.053 13.227-7.339 27.221-8.149 41.216-36.736-38.741-89.813-52.736-142.080-52.736-80.853 0-143.701 40.363-143.701 127.744 1.621 193.707 285.739 89.813 280.875 185.472 0 49.451-34.304 57.685-75.136 57.685-44.885 0-72.661-18.133-76.715-64.299h-115.925zM3319.381 385.835c-19.584-17.323-60.416-18.176-96.341-24.747s-68.565-19.797-68.565-62.635c0-42.88 33.451-54.4 71.040-54.4 90.624 0 93.909 71.723 93.909 98.091v43.691zM3851.904 372.608c0-78.293 60.416-108.8 128.981-108.8 44.885 0 113.493 13.227 113.493 73.387 0 64.299-88.192 73.344-173.099 97.237-86.528 21.419-173.909 58.496-173.909 167.296 0 121.131 112.683 178.005 217.984 178.005 121.643 0 233.515-53.547 233.515-189.568h-124.117c-4.096 70.059-53.077 89.003-115.115 89.003-40.832 0-88.192-17.323-88.192-66.773 0-45.355 27.776-51.925 173.909-89.003 43.264-9.856 173.099-38.741 173.099-171.435 0-107.989-83.285-188.757-242.475-188.757-128.981 0-250.624 64.299-248.149 209.323h124.075zM4377.813 361.899c3.285-75.008 38.357-107.947 103.68-107.947 46.549 0 84.096 28.843 91.435 55.211h102.059c-32.64-101.376-102.059-143.403-197.547-143.403-133.077 0-215.552 92.331-215.552 224.213 0 127.744 87.381 224.981 215.552 224.981 143.701 0 213.888-121.984 204.928-253.056h-304.555zM4566.4 436.096c-10.624 59.349-35.925 90.667-92.245 90.667-75.093 0-93.867-57.685-96.341-90.667h188.587zM4751.104 603.435h110.208v-79.104h1.664c22.059 53.547 76.715 90.667 134.699 90.667 8.96 0 17.152-1.664 25.301-4.139v-108.8c-10.624 2.475-27.776 4.096-41.643 4.096-85.717 0-114.304-60.971-114.304-136.832v-192.043h-115.925v426.155zM5302.229 177.28h-128.981l-144.469 426.112h121.6l89.003-290.944h1.621l89.003 290.944h115.115l-142.891-426.112zM5588.949 361.899c3.243-75.008 38.315-107.947 103.68-107.947 46.549 0 84.096 28.843 91.435 55.211h102.101c-32.683-101.376-102.101-143.403-197.589-143.403-133.077 0-215.552 92.331-215.552 224.213 0 127.744 87.381 224.981 215.552 224.981 143.659 0 213.931-121.984 204.928-253.056h-304.555zM5777.536 436.096c-10.624 59.349-35.925 90.667-92.245 90.667-75.136 0-93.909-57.685-96.341-90.667h188.587zM5962.155 603.435h110.208v-79.104h1.621c22.059 53.547 76.757 90.667 134.699 90.667 9.003 0 17.152-1.664 25.344-4.139v-108.8c-10.624 2.475-27.733 4.096-41.685 4.096-85.717 0-114.304-60.971-114.304-136.832v-192.043h-115.925v426.155zM6519.125 765.782h180.437l136.32-404.693h1.664l128.939 404.693h180.437v-588.501h-120.021v417.067h-1.621l-142.891-417.067h-98.773l-142.891 412.928h-1.621v-412.928h-120.021v588.501zM7242.709 472.363c6.528 108.8 103.723 142.592 198.4 142.592 84.096 0 185.344-18.944 185.344-121.173v-221.696c0-38.741 4.096-77.483 14.677-94.805h-117.547c-4.096 13.227-7.381 27.221-8.149 41.216-36.736-38.741-89.771-52.736-142.037-52.736-80.853 0-143.701 40.363-143.701 127.744 1.621 193.707 285.739 89.813 280.832 185.472 0 49.451-34.304 57.685-75.093 57.685-44.928 0-72.661-18.133-76.757-64.299h-115.968zM7510.485 385.835c-19.584-17.323-60.416-18.176-96.341-24.747s-68.565-19.797-68.565-62.635c0-42.88 33.493-54.4 71.040-54.4 90.624 0 93.867 71.723 93.867 98.091v43.691zM7716.395 603.435h110.208v-59.349h2.475c29.355 48.64 80 70.912 128.981 70.912 123.264 0 154.283-70.059 154.283-175.573v-262.101h-115.925v240.683c0 70.059-19.627 104.704-74.283 104.704-62.891 0-89.813-35.456-89.813-121.984v-223.36h-115.925v426.069zM8195.797 472.363c6.485 108.8 103.68 142.592 198.357 142.592 84.096 0 185.344-18.944 185.344-121.173v-221.696c0-38.741 4.096-77.483 14.677-94.805h-117.547c-4.096 13.227-7.381 27.221-8.149 41.216-36.736-38.741-89.813-52.736-142.080-52.736-80.811 0-143.659 40.363-143.659 127.744 1.621 193.707 285.739 89.813 280.832 185.472 0 49.451-34.304 57.685-75.093 57.685-44.928 0-72.661-18.133-76.757-64.299h-115.925zM8463.531 385.835c-19.584-17.323-60.416-18.176-96.341-24.747s-68.565-19.797-68.565-62.635c0-42.88 33.493-54.4 71.040-54.4 90.624 0 93.867 71.723 93.867 98.091v43.691zM9075.157 204.502c0-70.101-25.301-188.757-218.795-188.757-83.285 0-179.627 40.363-186.112 136.832h115.072c10.624-43.691 44.928-58.539 86.528-58.539 64.512 0 93.909 43.691 93.099 105.515v56.021h-1.621c-25.344-45.355-75.136-65.92-126.549-65.92-127.36 0-180.437 97.237-180.437 214.272 0 110.421 63.659 210.987 181.205 210.987 55.552 0 97.152-18.944 125.739-68.437h1.621v56.96h110.208v-398.933zM8964.949 395.691c0 69.248-23.68 131.029-98.773 131.029-65.28 0-93.867-57.685-93.867-121.173 0-60.971 22.059-127.744 93.867-127.744 66.133 0.043 98.773 56.917 98.773 117.888zM9263.957 361.899c3.243-75.008 38.315-107.947 103.68-107.947 46.549 0 84.096 28.843 91.435 55.211h102.101c-32.683-101.376-102.101-143.403-197.589-143.403-133.077 0-215.552 92.331-215.552 224.213 0 127.744 87.381 224.981 215.552 224.981 143.659 0 213.931-121.984 204.928-253.056h-304.555zM9452.544 436.096c-10.624 59.349-35.925 90.667-92.245 90.667-75.136 0-93.909-57.685-96.341-90.667h188.587zM9637.205 603.435h110.208v-79.104h1.621c22.059 53.547 76.757 90.667 134.699 90.667 9.003 0 17.152-1.664 25.344-4.139v-108.8c-10.624 2.475-27.733 4.096-41.643 4.096-85.76 0-114.347-60.971-114.347-136.832v-192.043h-115.925v426.155z" />
<glyph unicode="&#xe9a1;" glyph-name="chevron_up" d="M287.456 349.195l225.984 222.016 223.040-223.008-63.008-64.992-161.024 155.008-159.008-156.032z" />
<glyph unicode="&#xe9a2;" glyph-name="chevron_down" d="M287.456 504.203l225.984-222.016 223.040 223.008-63.008 64.992-161.024-155.008-159.008 156.032z" />
<glyph unicode="&#xe9a3;" glyph-name="chevron_left" d="M589.472 651.211l-222.016-225.984 223.008-223.040 64.992 63.008-155.008 161.024 156.032 159.008z" />
<glyph unicode="&#xe9a4;" glyph-name="chevron_right" d="M434.464 651.211l222.016-225.984-223.008-223.040-64.992 63.008 155.008 161.024-156.032 159.008z" />
<glyph unicode="&#xe9a5;" glyph-name="index" d="M728.224 778.667l2.4-192h197.376v-224h-256v164.704l-43.264-41.728-0.672-122.976h-241.408v117.536l-48.32 49.504-0.928-167.040h-241.408v224h189.312l-2.4 192h-250.912v-768h960v768h-263.776zM337.408 74.667h-241.408v224h241.408v-224zM628.096 74.667h-241.44v224h241.44v-224zM928 74.667h-256v224h256v-224zM702.944 619.147l-41.888 41.888-127.104-127.136v343.104h-59.168v-343.104l-127.136 127.136-41.888-41.888 198.656-198.656z" />
<glyph unicode="&#xe9a6;" glyph-name="folding_all" d="M946.016 137.995h-213.312v517.344h-501.344v197.312h714.656v-714.656zM796.672 201.995h85.312v586.656h-586.624v-69.312h501.344v-517.344zM212.672 391.307h448v-64h-448v64zM792.672 0.651h-714.656v714.688h714.656v-714.688zM142.016 64.651h586.656v586.688h-586.656v-586.688z" />
<glyph unicode="&#xe9a7;" glyph-name="expend_all" d="M946.016 137.995h-213.344v517.344h-501.312v197.312h714.656v-714.656zM796.672 201.995h85.344v586.656h-586.656v-69.312h501.312v-517.344zM212.672 391.307h448v-64h-448v64zM792.672 0.651h-714.656v714.688h714.656v-714.688zM142.016 64.651h586.656v586.688h-586.656v-586.688zM404.672 583.307h64v-448h-64v448z" />
<glyph unicode="&#xe9a8;" glyph-name="access_plan" d="M800 426.667c0-17.673-14.327-32-32-32s-32 14.327-32 32c0 17.673 14.327 32 32 32s32-14.327 32-32zM800 170.667c0-17.673-14.327-32-32-32s-32 14.327-32 32c0 17.673 14.327 32 32 32s32-14.327 32-32zM800 682.667c0-17.673-14.327-32-32-32s-32 14.327-32 32c0 17.673 14.327 32 32 32s32-14.327 32-32zM96 842.667v-330.016h64v266.016h704v-192h-465.344l65.312-64h400.032v-192h-392l-65.344-64h457.344v-192h-704v264h-64v-328h832v832zM280 298.027l41.856-41.856 166.688 166.656-166.688 166.528-41.856-41.888 95.104-95.104h-343.104v-59.168h343.104z" />
<glyph unicode="&#xe9a9;" glyph-name="dependency" d="M211.968 576.619c77.664 0 140.608-62.944 140.608-140.576v-4.704c0-77.6-62.944-140.608-140.608-140.608v0c-77.632 0-140.608 63.008-140.608 140.608v4.704c0 77.632 62.976 140.576 140.608 140.576v0zM816.64 29.931c-86.336 0-156.608 70.24-156.608 156.608v4.704c0 86.336 70.24 156.608 156.608 156.608s156.64-70.24 156.64-156.608v-4.704c-0.032-86.368-70.272-156.608-156.64-156.608zM816.64 315.819c-68.672 0-124.608-55.904-124.608-124.608v-4.704c0-68.672 55.904-124.608 124.608-124.608s124.64 55.904 124.64 124.608v4.704c-0.032 68.704-55.936 124.608-124.64 124.608zM816.64 507.499c-86.368 0-156.64 70.24-156.64 156.608v4.672c0 86.368 70.24 156.608 156.64 156.608s156.64-70.24 156.64-156.608v-4.672c-0.032-86.368-70.272-156.608-156.64-156.608zM816.64 793.387c-68.704 0-124.64-55.904-124.64-124.608v-4.672c0-68.704 55.904-124.608 124.64-124.608s124.64 55.904 124.64 124.608v4.672c-0.032 68.704-55.936 124.608-124.64 124.608zM474.016 201.355h219.296v-32h-219.296v32zM473.312 665.355h32v-485.344h-32v485.344zM473.92 681.355h207.072v-32h-207.072v32zM323.968 446.667h160.032v-32h-160.032v32zM577.677 743.433l83.994-63.994-19.392-25.453-83.994 63.994 19.392 25.453zM637.070 677.92l21.882-23.35-76.006-71.225-21.882 23.35 76.006 71.225zM577.698 267.449l83.994-63.994-19.373-25.427-83.994 63.994 19.373 25.427zM637.132 201.977l21.866-23.363-76.047-71.173-21.866 23.363 76.047 71.173z" />
<glyph unicode="&#xe9aa;" glyph-name="reference" d="M816.64 262.699c-86.368 0-156.64 70.24-156.64 156.576v4.704c0 86.368 70.24 156.608 156.64 156.608s156.64-70.24 156.64-156.608v-4.704c-0.064-86.336-70.304-156.576-156.64-156.576zM816.64 548.587c-68.704 0-124.64-55.904-124.64-124.608v-4.704c0-68.704 55.904-124.576 124.64-124.576 68.672 0 124.608 55.872 124.64 124.576v4.704c-0.032 68.704-55.936 124.608-124.64 124.608zM211.968 523.467c-77.664 0-140.608 62.944-140.608 140.576v4.736c0 77.632 62.944 140.608 140.608 140.608v0c77.664 0 140.608-62.976 140.608-140.608v-4.736c0-77.632-62.944-140.576-140.608-140.576v0zM212 45.931c-77.696 0-140.64 62.944-140.64 140.672v4.672c0 77.696 62.944 140.64 140.64 140.64v0c77.632 0 140.608-62.944 140.608-140.64v-4.672c0-77.76-62.976-140.672-140.608-140.672v0zM335.296 685.963h176.992v-32h-176.992v32zM481.152 675.307h32v-485.344h-32v485.344zM345.216 205.995h167.136v-32h-167.136v32zM498.688 440.651h176.512v-32h-176.512v32zM589.075 501.415l83.994-63.994-19.392-25.453-83.994 63.994 19.392 25.453zM648.453 436l21.876-23.311-75.977-71.299-21.876 23.311 75.977 71.299z" />
<glyph unicode="&#xe9ab;" glyph-name="direct_back_fill" d="M512 874.667c-247.392 0-448-200.608-448-448 0-247.36 200.608-448 448-448 247.36 0 448 200.64 448 448 0 247.392-200.64 448-448 448zM768 394.667h-370.752l137.376-137.376-45.248-45.248-214.624 214.624 214.624 214.624 45.248-45.248-137.376-137.376h370.752v-64z" />
<glyph unicode="&#xe9ac;" glyph-name="direct_down_fill" d="M511.936 874.667c-247.36 0-448-200.64-448-448s200.64-448 448-448c247.36 0 448 200.64 448 448s-200.608 448-448 448zM511.936 189.419l-214.624 214.624 45.248 45.248 137.376-137.376v370.752h64v-370.752l137.376 137.376 45.248-45.248-214.624-214.624z" />
<glyph unicode="&#xe9ad;" glyph-name="layout_tree" d="M867.68 464.619v157.216h-287.456v-65.152h-339.456v135.936h202.912v157.216h-287.456v-157.216h48.672v-135.936h-0.704v-35.808h0.704v-188.32h-0.704v-35.84h0.704v-199.2h-0.16v-35.84h375.488v-58.144h287.456v157.248h-287.456v-63.264h-339.456v199.2h339.456v-62.336h287.456v157.216h-287.456v-59.040h-339.456v188.32h339.456v-56.256z" />
<glyph unicode="&#xe9ae;" glyph-name="layout_topo" d="M984.448 374.667v344h-402.976v-344h253.184l-176.416-196.8v160.8h-309.76l-95.872 168h198.368v344h-402.976v-344h164.352l95.936-168h-53.024v-344h402.976v130.368l223.744 249.632h102.464zM88.288 800.651h326.208v-124h-326.208v124zM86.368 622.667h326.208v-44h-326.208v44zM619.84 66.667h-326.208v44h326.208v-44zM621.76 164.651h-326.208v124h326.208v-124zM621.76 668.651h326.208v-124h-326.208v124zM619.84 490.667h326.208v-44h-326.208v44z" />
<glyph unicode="&#xe9af;" glyph-name="chart_line" d="M64 106.667v115.744h33.632v24.064h-33.632v130.976h33.632v24.096h-33.632v113.824h33.632v24.064h-33.632v113.888h33.632v24.064h-33.632v101.28h-32v-704h960v32zM260.032 161.739l197.184 302.528 151.296-134.176 337.088 382.464-48 42.304-294.688-334.272-158.784 140.832-197.696-303.328-111.2 96.128-41.856-48.352z" />
<glyph unicode="&#xe9b0;" glyph-name="chart_bar" d="M904.032 106.667v226.624h-105.856v-226.624h-105.856v400h-105.856v-400h-93.024v488h-105.824v-488h-105.792v677.344h-105.824v-677.344h-112v115.744h33.632v24.064h-33.632v130.976h33.632v24.096h-33.632v113.824h33.632v24.064h-33.632v113.888h33.632v24.064h-33.632v101.28h-32v-704h960v32z" />
<glyph unicode="&#xe9b1;" glyph-name="chart_pie" d="M528.448 829.387h-32v-379.424h-379.392v-32c0-226.784 184.544-411.36 411.36-411.36 226.88 0 411.36 184.576 411.36 411.392 0.032 226.816-184.448 411.392-411.328 411.392zM528.448 70.635c-180.736 0-329.76 138.752-345.952 315.328h377.952v377.984c176.608-16.224 315.36-165.184 315.36-345.952 0-191.52-155.84-347.36-347.36-347.36zM448 869.579c-196.064-28.128-350.784-182.848-378.912-378.912h378.912v378.912z" />
<glyph unicode="&#xe9b2;" glyph-name="stop_fill" d="M239.872 698.795h548.384v-544.256h-548.384v544.256z" />
<glyph unicode="&#xe9b3;" glyph-name="direct_next_fill" d="M512 874.667c-247.392 0-448-200.608-448-448 0-247.36 200.608-448 448-448 247.36 0 448 200.64 448 448 0 247.392-200.64 448-448 448zM534.624 212.043l-45.248 45.248 137.376 137.376h-370.752v64h370.752l-137.376 137.376 45.248 45.248 214.624-214.624-214.624-214.624z" />
<glyph unicode="&#xe9b4;" glyph-name="direct_up_fill" d="M512 874.667c-247.36 0-448-200.608-448-448 0-247.36 200.64-448 448-448s448 200.64 448 448c0 247.392-200.64 448-448 448zM681.376 404.043l-137.376 137.376v-370.752h-64v370.752l-137.376-137.376-45.248 45.248 214.624 214.624 214.624-214.624-45.248-45.248z" />
<glyph unicode="&#xe9b5;" glyph-name="maximum" d="M512 874.667c-247.392 0-448-200.608-448-448 0-247.36 200.608-448 448-448 247.36 0 448 200.64 448 448 0 247.392-200.64 448-448 448zM512 42.667c-211.744 0-384 172.256-384 384s172.256 384 384 384 384-172.256 384-384-172.256-384-384-384zM527.968 687.979v-64h146.752l-135.968-140.064 45.248-45.248 135.968 140.064v-146.752h64v256zM504 362.667l-45.248 45.216-141.344-138.656v146.752h-64v-256h256v64h-146.752z" />
<glyph unicode="&#xe9b6;" glyph-name="maximum_fill" d="M512 874.667c-247.392 0-448-200.608-448-448 0-247.36 200.608-448 448-448 247.36 0 448 200.64 448 448 0 247.392-200.64 448-448 448zM498.784 170.667h-256v256h64v-146.72l141.312 138.656 45.248-45.216-141.312-138.72h146.752v-64zM773.312 442.667h-64v146.752l-135.968-140.064-45.248 45.248 135.968 140.064h-146.752v64h256v-256z" />
<glyph unicode="&#xe9b7;" glyph-name="minimum" d="M512 874.667c-247.392 0-448-200.608-448-448 0-247.36 200.608-448 448-448 247.36 0 448 200.64 448 448 0 247.392-200.64 448-448 448zM512 42.667c-211.744 0-384 172.256-384 384s172.256 384 384 384 384-172.256 384-384-172.256-384-384-384zM236 454.667h540v-80h-540v80z" />
<glyph unicode="&#xe9b8;" glyph-name="minimum_fill" d="M512 874.667c-247.392 0-448-200.608-448-448 0-247.36 200.608-448 448-448 247.36 0 448 200.64 448 448 0 247.392-200.64 448-448 448zM786.656 374.667h-540v80h540v-80z" />
<glyph unicode="&#xe9b9;" glyph-name="close_fill" d="M512 874.667c-247.392 0-448-200.608-448-448 0-247.36 200.608-448 448-448 247.36 0 448 200.64 448 448 0 247.392-200.64 448-448 448zM694.624 289.291l-45.248-45.248-137.376 137.376-137.376-137.376-45.248 45.248 137.376 137.376-137.376 137.376 45.248 45.248 137.376-137.376 137.376 137.376 45.248-45.248-137.376-137.376 137.376-137.376z" />
</font>
</defs>
</svg>
